<svg width="16" height="16" viewBox="0 0 16 16" fill="none" xmlns="http://www.w3.org/2000/svg">
<path d="M3.83588 5.72707C4.07164 3.60524 5.86512 2 8 2V2C10.1349 2 11.9284 3.60524 12.1641 5.72706L12.353 7.42673C12.4498 8.29865 12.7336 9.13941 13.185 9.89168L13.6185 10.6142C13.8117 10.9361 13.9082 11.0971 13.9444 11.2221C14.1004 11.7612 13.7823 12.3231 13.2397 12.4667C13.1139 12.5 12.9262 12.5 12.5508 12.5H3.44917C3.07377 12.5 2.88607 12.5 2.76029 12.4667C2.21774 12.3231 1.89961 11.7612 2.05559 11.2221C2.09175 11.0971 2.18832 10.9361 2.38147 10.6142L2.81499 9.89168C3.26635 9.13941 3.55015 8.29865 3.64703 7.42673L3.83588 5.72707Z" stroke="#888888"/>
<path d="M5.82667 12.8044C5.95486 13.3626 6.23734 13.8558 6.63029 14.2076C7.02324 14.5593 7.5047 14.75 8 14.75C8.4953 14.75 8.97676 14.5593 9.36971 14.2076C9.76266 13.8558 10.0451 13.3626 10.1733 12.8044" stroke="#888888" stroke-linecap="round"/>
</svg>
