<svg width="64" height="64" viewBox="0 0 64 64" fill="none" xmlns="http://www.w3.org/2000/svg">
<circle r="12.5" transform="matrix(1 0 0 -1 32 24.5)" stroke="#E9666B" stroke-width="3"/>
<path d="M33.5 54C33.5 54.8284 32.8284 55.5 32 55.5C31.1716 55.5 30.5 54.8284 30.5 54H33.5ZM30.5 54V35.5H33.5V54H30.5Z" fill="#E9666B"/>
<path d="M41.25 43.25C42.0784 43.25 42.75 43.9216 42.75 44.75C42.75 45.5784 42.0784 46.25 41.25 46.25L41.25 43.25ZM22.75 46.25C21.9216 46.25 21.25 45.5784 21.25 44.75C21.25 43.9216 21.9216 43.25 22.75 43.25L22.75 46.25ZM41.25 46.25L22.75 46.25L22.75 43.25L41.25 43.25L41.25 46.25Z" fill="#E9666B"/>
</svg>
