<svg width="24" height="24" viewBox="0 0 24 24" fill="none" xmlns="http://www.w3.org/2000/svg">
<path d="M18.1536 2.69983C17.3051 2.69983 16.6151 3.42506 16.6151 4.31682V4.60911L7.62582 8.38806C7.48006 8.44993 7.38428 8.59826 7.38428 8.76359V14.4231C7.38428 14.5884 7.48006 14.7368 7.62582 14.7983L16.6151 18.5772V18.8699C16.6151 19.7617 17.3051 20.4869 18.1536 20.4869C19.002 20.4869 19.692 19.7616 19.692 18.8699V4.31682C19.692 3.42502 19.002 2.69983 18.1536 2.69983ZM18.9228 18.8698C18.9228 19.3157 18.5778 19.6784 18.1536 19.6784C17.7293 19.6784 17.3843 19.3158 17.3843 18.8698V18.3039C17.3843 18.1381 17.2885 17.9898 17.1424 17.9283L8.15348 14.1494V9.03726L17.1424 5.25831C17.2886 5.19644 17.3843 5.04812 17.3843 4.88278V4.31682C17.3843 3.87094 17.7293 3.5083 18.1536 3.5083C18.5778 3.5083 18.9228 3.87089 18.9228 4.31682V18.8698Z" fill="#333333" stroke="#333333" stroke-width="0.1" stroke-linecap="square" stroke-linejoin="round"/>
<path d="M7.76926 8.35901H5.07696C3.38039 8.35901 2 9.80986 2 11.593C2 13.3762 3.38039 14.827 5.07696 14.827H7.76926C7.98155 14.827 8.15387 14.6464 8.15387 14.4228V8.76329C8.15387 8.54012 7.98155 8.35901 7.76926 8.35901ZM7.38466 14.0185H5.07696C3.80425 14.0185 2.76925 12.9307 2.76925 11.593C2.76925 10.2554 3.80425 9.16753 5.07696 9.16753H7.38466V14.0185Z" fill="#333333" stroke="#333333" stroke-width="0.1" stroke-linecap="square" stroke-linejoin="round"/>
<path d="M21.7367 9.9967L19.429 9.18818C19.3113 9.14735 19.1832 9.16796 19.0825 9.24399C18.9821 9.31998 18.9229 9.44206 18.9229 9.57186V13.6143C18.9229 13.7441 18.9821 13.8662 19.0825 13.9426C19.149 13.9927 19.2279 14.0186 19.3075 14.0186C19.3482 14.0186 19.3894 14.0117 19.429 13.9975L21.7367 13.189C21.894 13.1345 21.9998 12.98 21.9998 12.8058V10.3803C21.9998 10.2061 21.894 10.0521 21.7367 9.9967ZM21.2306 12.5143L19.6921 13.0532V10.1325L21.2306 10.6714V12.5143Z" fill="#333333" stroke="#333333" stroke-width="0.1" stroke-linecap="square" stroke-linejoin="round"/>
<path d="M9.65673 19.4737L9.27059 19.0674L8.14252 14.3256C8.09983 14.1457 7.94596 14.0192 7.76945 14.0192H4.69245C4.57476 14.0192 4.46397 14.0758 4.39091 14.172C4.31785 14.269 4.2909 14.3955 4.31785 14.516L5.85631 21.3883C5.89823 21.5738 6.05553 21.7 6.23054 21.7C6.25479 21.7 6.279 21.6975 6.30361 21.6923L9.19207 21.1061C9.19591 21.1053 9.19978 21.1045 9.20361 21.1037C9.37286 21.0637 9.52746 20.9748 9.65055 20.8474C9.82593 20.6651 9.92324 20.4225 9.92477 20.163C9.92635 19.9039 9.83174 19.6597 9.65673 19.4737ZM9.11018 20.2717C9.09057 20.2923 9.06596 20.3065 9.03901 20.3137L6.5209 20.8251L5.17819 14.8276H7.469L8.55056 19.3722C8.56746 19.4434 8.60248 19.5085 8.6517 19.5602L9.11171 20.0437C9.15056 20.0845 9.15593 20.1326 9.15593 20.1581C9.15557 20.1828 9.14944 20.2309 9.11018 20.2717Z" fill="#333333" stroke="#333333" stroke-width="0.1" stroke-linecap="square" stroke-linejoin="round"/>
</svg>
