<svg width="48" height="48" viewBox="0 0 48 48" fill="none" xmlns="http://www.w3.org/2000/svg">
<path d="M41.3332 19.8788C41.3332 32.0521 28.9876 42.7578 25.1344 45.8026C24.4647 46.3318 23.535 46.3318 22.8652 45.8026C19.0121 42.7578 6.6665 32.0521 6.6665 19.8788C6.6665 14.9603 8.49269 10.2432 11.7433 6.76521C14.9939 3.28726 19.4028 1.33337 23.9998 1.33337C28.5969 1.33337 33.0057 3.28726 36.2563 6.76521C39.507 10.2432 41.3332 14.9603 41.3332 19.8788Z" fill="#49DC92"/>
<path d="M23.9998 28C29.1545 28 33.3332 23.8214 33.3332 18.6667C33.3332 13.512 29.1545 9.33337 23.9998 9.33337C18.8452 9.33337 14.6665 13.512 14.6665 18.6667C14.6665 23.8214 18.8452 28 23.9998 28Z" fill="white"/>
</svg>
