<svg width="24" height="24" viewBox="0 0 24 24" fill="none" xmlns="http://www.w3.org/2000/svg">
<path d="M19.5999 12V21.5H4.3999V12" stroke="#AAAAAA" stroke-width="1.5" stroke-linecap="round" stroke-linejoin="round"/>
<path d="M21.5 7.25H2.5V12H21.5V7.25Z" stroke="#AAAAAA" stroke-width="1.5" stroke-linecap="round" stroke-linejoin="round"/>
<path d="M12 21.5V7.25" stroke="#AAAAAA" stroke-width="1.5" stroke-linecap="round" stroke-linejoin="round"/>
<path d="M12 7.25H16.275C16.9049 7.25 17.509 6.99978 17.9544 6.55438C18.3998 6.10898 18.65 5.50489 18.65 4.875C18.65 4.24511 18.3998 3.64102 17.9544 3.19562C17.509 2.75022 16.9049 2.5 16.275 2.5C12.95 2.5 12 7.25 12 7.25Z" stroke="#AAAAAA" stroke-width="1.5" stroke-linecap="round" stroke-linejoin="round"/>
<path d="M12.0001 7.25H7.7251C7.09521 7.25 6.49112 6.99978 6.04572 6.55438C5.60032 6.10898 5.3501 5.50489 5.3501 4.875C5.3501 4.24511 5.60032 3.64102 6.04572 3.19562C6.49112 2.75022 7.09521 2.5 7.7251 2.5C11.0501 2.5 12.0001 7.25 12.0001 7.25Z" stroke="#AAAAAA" stroke-width="1.5" stroke-linecap="round" stroke-linejoin="round"/>
</svg>
