<svg width="40" height="40" viewBox="0 0 40 40" fill="none" xmlns="http://www.w3.org/2000/svg">
<path d="M20 22.5C21.6569 22.5 23 21.1569 23 19.5C23 17.8431 21.6569 16.5 20 16.5C18.3431 16.5 17 17.8431 17 19.5C17 21.1569 18.3431 22.5 20 22.5Z" fill="white" stroke="white" stroke-width="1.5" stroke-linecap="round" stroke-linejoin="round"/>
<path d="M20 22.5V36.5" stroke="white" stroke-width="1.5" stroke-linecap="round"/>
<path d="M27.2095 12.3034C28.1581 13.2492 28.9106 14.3724 29.424 15.6087C29.9374 16.845 30.2017 18.1702 30.2017 19.5085C30.2017 20.8468 29.9374 22.172 29.424 23.4083C28.9106 24.6446 28.1581 25.7678 27.2095 26.7136M12.7905 26.6966C11.8419 25.7508 11.0894 24.6276 10.576 23.3913C10.0626 22.155 9.7983 20.8298 9.7983 19.4915C9.7983 18.1532 10.0626 16.828 10.576 15.5917C11.0894 14.3554 11.8419 13.2322 12.7905 12.2864M32.0216 7.5C35.2093 10.6829 37 14.9993 37 19.5C37 24.0007 35.2093 28.3171 32.0216 31.5M7.97843 31.5C4.79074 28.3171 3 24.0007 3 19.5C3 14.9993 4.79074 10.6829 7.97843 7.5" stroke="white" stroke-width="1.5" stroke-linecap="round" stroke-linejoin="round"/>
</svg>
