<svg width="24" height="24" viewBox="0 0 24 24" fill="none" xmlns="http://www.w3.org/2000/svg">
<path d="M19.1856 4.15186C16.268 0.365855 13.7703 2.30717 12.4875 4.41537C12.1455 4.97735 12.189 5.69748 12.6084 6.20434C14.7275 8.76578 17.3086 7.74123 18.9778 6.35621C19.6398 5.80694 19.7107 4.83321 19.1856 4.15186Z" stroke="#333333" stroke-width="1.2" stroke-linecap="round" stroke-linejoin="round"/>
<path d="M12 5.3016C14 4.47627 15.2 4.88895 16 5.3016" stroke="#333333" stroke-width="1.2" stroke-linecap="round" stroke-linejoin="round"/>
<path d="M4.81438 4.15186C7.73202 0.365855 10.2297 2.30717 11.5125 4.41537C11.8545 4.97735 11.811 5.69748 11.3916 6.20434C9.27253 8.76578 6.6914 7.74123 5.02216 6.35621C4.36017 5.80694 4.2893 4.83321 4.81438 4.15186Z" stroke="#333333" stroke-width="1.2" stroke-linecap="round" stroke-linejoin="round"/>
<path d="M12 5.3016C10 4.47627 8.8 4.88895 8 5.3016" stroke="#333333" stroke-width="1.2" stroke-linecap="round" stroke-linejoin="round"/>
<path d="M12.6 5C12.6 4.66863 12.3314 4.4 12 4.4C11.6686 4.4 11.4 4.66863 11.4 5L12.6 5ZM11.4 22C11.4 22.3314 11.6686 22.6 12 22.6C12.3314 22.6 12.6 22.3314 12.6 22H11.4ZM11.4 5V22H12.6V5L11.4 5Z" fill="#333333"/>
<path d="M3 14H21" stroke="#333333" stroke-width="1.2" stroke-linecap="round"/>
</svg>
