<svg width="360" height="360" viewBox="0 0 360 360" fill="none" xmlns="http://www.w3.org/2000/svg">
<path d="M295.855 225.302L305.467 225.108L310.205 225.022C311.782 225.022 313.344 225.022 314.921 225.022L314.597 225.338L314.561 217.289L314.921 217.642L305.388 217.598C302.206 217.598 299.03 217.519 295.855 217.483L296.05 217.289C296.05 218.606 295.985 219.931 295.956 221.27L295.855 225.302ZM295.855 225.302L295.747 221.321C295.747 219.974 295.668 218.614 295.654 217.253V217.058H295.855C299.03 217.058 302.206 216.943 305.388 216.943L314.921 216.9H315.281V217.267L315.238 225.317V225.641H314.921C313.308 225.641 311.702 225.641 310.097 225.605L305.28 225.504L295.855 225.302Z" fill="#EBEBEB"/>
<path d="M306.489 235.44L316.101 235.246L320.839 235.159C322.416 235.159 323.985 235.159 325.555 235.123L325.231 235.44V227.39L325.591 227.743L316.058 227.7C312.876 227.7 309.701 227.621 306.525 227.585L306.72 227.39C306.72 228.708 306.655 230.033 306.626 231.372L306.489 235.44ZM306.489 235.44L306.389 231.458C306.353 230.112 306.302 228.751 306.288 227.39V227.196H306.489C309.665 227.16 312.84 227.081 316.022 227.081L325.555 227.038H325.915V227.405L325.872 235.44V235.764H325.555C323.949 235.764 322.337 235.764 320.731 235.728L315.936 235.642L306.489 235.44Z" fill="#EBEBEB"/>
<path d="M285.178 235.469H304.243V227.412H285.178V235.469Z" fill="#EBEBEB"/>
<path d="M34.4446 275.566L44.035 275.371L48.7582 275.285C50.3278 275.285 51.8902 275.285 53.4526 275.285L53.1358 275.602L53.0926 267.574L53.4526 267.934L43.9198 267.84C40.7518 267.84 37.5838 267.754 34.4158 267.718L34.6102 267.523C34.6102 268.834 34.5526 270.158 34.5166 271.498L34.4446 275.566ZM34.4446 275.566L34.3438 271.598C34.3078 270.252 34.2646 268.898 34.2502 267.538V267.343H34.4446C37.6126 267.3 40.7806 267.228 43.9486 267.221L53.4526 267.178H53.8126V267.538V275.566V275.89H53.4958C51.8974 275.89 50.2918 275.89 48.6934 275.854L43.8694 275.76L34.4446 275.566Z" fill="#EBEBEB"/>
<path d="M45.0504 285.696H64.0583V277.661H45.0504V285.696Z" fill="#EBEBEB"/>
<path d="M83.8441 113.659L93.4633 113.458L98.2009 113.378C99.7705 113.342 101.34 113.378 102.91 113.342L102.593 113.659L102.55 105.602L102.91 105.962L93.3769 105.919C90.2017 105.919 87.0193 105.84 83.8441 105.797L84.0385 105.602C84.0385 106.92 83.9809 108.252 83.9449 109.591L83.8441 113.659ZM83.8441 113.659L83.7433 109.678C83.7433 108.331 83.6641 106.97 83.6497 105.602V105.408H83.8441C87.0193 105.372 90.2017 105.293 93.3769 105.293L102.91 105.242H103.27V105.602L103.234 113.659V113.983H102.917C101.311 113.983 99.6985 113.983 98.1001 113.94L93.3049 113.861L83.8441 113.659Z" fill="#EBEBEB"/>
<path d="M44.9854 44.0208H64.051V35.964H44.9854V44.0208Z" fill="#EBEBEB"/>
<path d="M34.3583 54.18L43.9703 54L48.7079 53.9208C50.2847 53.9208 51.8471 53.9208 53.4239 53.9208L53.0999 54.2376V46.1808L53.4599 46.5408L43.9199 46.44C40.7375 46.44 37.5623 46.3608 34.3871 46.3176L34.5815 46.1232C34.5815 47.4408 34.5167 48.7656 34.4879 50.112L34.3583 54.18ZM34.3583 54.18L34.2503 50.1984C34.2503 48.852 34.1711 47.4912 34.1567 46.1232V45.9288H34.3583C37.5335 45.9288 40.7087 45.8136 43.8911 45.8064L53.4239 45.7632H53.7839V46.1232L53.7407 54.18V54.504H53.4239C51.8111 54.504 50.2055 54.504 48.5999 54.4608L43.8047 54.3816L34.3583 54.18Z" fill="#EBEBEB"/>
<path d="M295.855 44.0208L305.467 43.8192L310.205 43.74C311.782 43.74 313.344 43.74 314.921 43.74L314.597 44.0568L314.561 36L314.921 36.36L305.388 36.3168C302.206 36.3168 299.03 36.2376 295.855 36.1944L296.05 36C296.05 37.3176 295.985 38.6424 295.956 39.9888L295.855 44.0208ZM295.855 44.0208L295.747 40.0392C295.747 38.6928 295.668 37.332 295.654 35.964V35.7696H295.855C299.03 35.7696 302.206 35.6544 305.388 35.6472L314.921 35.604H315.281V36L315.238 44.0568V44.3808H314.921C313.308 44.3808 311.702 44.3808 310.097 44.3376L305.28 44.2224L295.855 44.0208Z" fill="#EBEBEB"/>
<path d="M265.716 144.77H284.781V136.714H265.716V144.77Z" fill="#EBEBEB"/>
<path d="M222.962 173.016H326.693V35.964H222.962V173.016Z" fill="#EBEBEB"/>
<path d="M276.898 102.413H321.818V41.4504L276.898 41.4504V102.413Z" fill="white"/>
<path d="M227.822 102.413H272.743V41.4504L227.822 41.4504V102.413Z" fill="white"/>
<path d="M276.898 167.522H321.818V106.56H276.898V167.522Z" fill="white"/>
<path d="M227.822 167.522H272.743V106.56H227.822V167.522Z" fill="white"/>
<path d="M257.616 35.964H222.955V232.034H243.014L229.017 132.264L257.616 35.964Z" fill="#DBDBDB"/>
<path d="M251.611 41.2632L246.132 64.0584L240.545 86.8248L229.363 132.35L229.37 132.228L234.54 179.806L237.118 203.594L239.58 227.398L236.765 203.638L234.058 179.863L228.658 132.307L228.65 132.242L228.665 132.178L240.084 86.7096L245.794 63.972L251.611 41.2632Z" fill="#EBEBEB"/>
<path d="M225.022 45.288L225.194 64.9512L225.295 84.6144L225.382 123.941L225.295 163.267L225.194 182.93L225.022 202.594L224.842 182.93L224.741 163.267L224.662 123.941L224.741 84.6144L224.842 64.9512L225.022 45.288Z" fill="#EBEBEB"/>
<path d="M231.494 48.9744L230.436 69.876L229.306 90.7704L226.937 132.559V132.53L228.089 179.1L228.593 202.378L229.018 225.67L228.226 202.392L227.513 179.114L226.231 132.552V132.53V132.523L228.773 90.7416L230.105 69.8544L231.494 48.9744Z" fill="#EBEBEB"/>
<path d="M236.009 222.653L233.726 200.095L231.516 177.53C230.112 162.482 228.636 147.434 227.29 132.379V132.286L233.726 97.1568L236.995 79.596L240.314 62.0496L237.29 79.6464L234.216 97.2432L227.966 132.408V132.322C229.406 147.362 230.731 162.425 232.121 177.473L234.101 200.059L236.009 222.653Z" fill="#EBEBEB"/>
<path d="M222.962 135.194H230.789V130.622H222.962V135.194Z" fill="#DBDBDB"/>
<path d="M291.946 35.964H326.606V232.034H306.547L320.551 132.264L291.946 35.964Z" fill="#DBDBDB"/>
<path d="M297.95 41.2632L303.768 63.972L309.477 86.7096L320.897 132.178L320.911 132.242L320.904 132.307L315.504 179.863L312.797 203.638L309.981 227.398L312.444 203.594L315.029 179.806L320.191 132.228L320.198 132.35L309.017 86.8248L303.429 64.0584L297.95 41.2632Z" fill="#EBEBEB"/>
<path d="M324.54 45.288L324.72 64.9512L324.821 84.6144L324.9 123.941L324.821 163.267L324.72 182.93L324.54 202.594L324.367 182.93L324.266 163.267L324.187 123.941L324.266 84.6144L324.367 64.9512L324.54 45.288Z" fill="#EBEBEB"/>
<path d="M318.067 48.9744L319.464 69.8544L320.789 90.7416L323.33 132.523V132.53V132.552L322.049 179.114L321.336 202.392L320.551 225.67L320.976 202.378L321.473 179.1L322.625 132.53V132.559L320.256 90.7704L319.133 69.876L318.067 48.9744Z" fill="#EBEBEB"/>
<path d="M313.553 222.653L315.461 200.059L317.448 177.473C318.83 162.425 320.155 147.362 321.595 132.322V132.408L315.36 97.2432L312.285 79.6464L309.261 62.0496L312.588 79.596L315.857 97.1568L322.286 132.286V132.379C320.933 147.434 319.464 162.482 318.053 177.53L315.849 200.095L313.553 222.653Z" fill="#EBEBEB"/>
<path d="M326.606 130.622H318.78V135.194H326.606V130.622Z" fill="#DBDBDB"/>
<path d="M81.2735 54.3816H40.6223V103.694H81.2735V54.3816Z" fill="#EBEBEB"/>
<path d="M76.6296 58.8816H45.2664V99.1944H76.6296V58.8816Z" fill="white"/>
<path d="M46.4904 58.8816H45.2664V99.1944H46.4904V58.8816Z" fill="#DBDBDB"/>
<path d="M82.4975 54.3816H81.2734V103.694H82.4975V54.3816Z" fill="#DBDBDB"/>
<path d="M63.1727 64.44H55.7783V86.472H63.1727V64.44Z" fill="#DBDBDB"/>
<path d="M72.6262 90.5904H52.1926V79.0704H72.6262V90.5904ZM52.9126 89.8704H71.9062V79.7904H52.9126V89.8704Z" fill="#EBEBEB"/>
<path d="M118.699 115.654H78.0479V164.966H118.699V115.654Z" fill="#EBEBEB"/>
<path d="M114.055 120.154H82.6919V160.466H114.055V120.154Z" fill="white"/>
<path d="M83.9159 120.154H82.6919V160.466H83.9159V120.154Z" fill="#DBDBDB"/>
<path d="M119.923 115.654H118.699V164.966H119.923V115.654Z" fill="#DBDBDB"/>
<path d="M101.671 130.579H95.3352V146.599H101.671V130.579Z" fill="#EBEBEB"/>
<path d="M108.72 151.711H90.9648V139.954H108.72V151.711ZM91.6992 150.991H108V140.674H91.6848L91.6992 150.991Z" fill="#DBDBDB"/>
<path d="M99.5903 339.574C138.074 339.574 169.272 336.585 169.272 332.899C169.272 329.213 138.074 326.225 99.5903 326.225C61.1062 326.225 29.9087 329.213 29.9087 332.899C29.9087 336.585 61.1062 339.574 99.5903 339.574Z" fill="#EBEBEB"/>
<path d="M32.0039 317.801L69.0047 317.628L106.006 317.563L180 317.441L253.994 317.563L290.995 317.628L327.996 317.801L290.995 317.981L253.994 318.046L180 318.161L106.006 318.046L69.0047 317.981L32.0039 317.801Z" fill="#263238"/>
<path d="M293.479 253.526C293.479 253.526 286.906 243.446 272.182 245.398C258.192 247.262 249.487 271.771 263.045 276.091C276.602 280.411 276.358 256.939 281.765 253.469C285.746 250.927 291.01 252.05 293.479 253.526Z" fill="#49DC92"/>
<path d="M259.754 258.055C260.771 257.323 261.834 256.656 262.937 256.061C263.98 255.487 265.097 255.058 266.256 254.786C268.063 252.503 270.391 250.686 273.046 249.487L272.621 249.422C271.859 249.318 271.092 249.253 270.324 249.228C268.776 249.192 267.235 249.436 265.774 249.948C265.756 249.954 265.738 249.952 265.721 249.944C265.705 249.936 265.693 249.922 265.687 249.905C265.681 249.888 265.683 249.869 265.691 249.853C265.699 249.836 265.713 249.824 265.73 249.818C267.212 249.338 268.743 249.031 270.295 248.904C271.05 248.839 271.809 248.839 272.563 248.904C272.966 248.947 273.37 249.012 273.766 249.091L273.996 249.134C275.388 248.592 276.837 248.21 278.316 247.997L277.927 247.853C277.237 247.629 276.535 247.444 275.825 247.298C274.406 246.999 272.953 246.885 271.505 246.96C271.418 246.96 271.404 246.823 271.505 246.816C272.968 246.78 274.432 246.859 275.882 247.054C277.107 247.203 278.313 247.476 279.482 247.867C280.366 247.793 281.253 247.776 282.139 247.817C287.179 248.083 292.478 250.481 295.178 254.902C297.878 259.322 297.965 264.895 298.058 269.935C298.242 276.963 297.76 283.993 296.618 290.93C296.546 291.341 295.978 291.211 296.006 290.815C296.374 284.875 296.726 278.935 296.726 272.981C296.726 270.223 296.69 267.451 296.496 264.701C296.384 262.339 295.931 260.006 295.15 257.774C294.282 255.491 292.762 253.513 290.779 252.086C288.782 250.679 286.498 249.732 284.09 249.314C281.947 248.938 279.754 248.938 277.61 249.314C277.643 249.744 277.614 250.175 277.524 250.596C277.43 251.126 277.273 251.644 277.056 252.137C276.857 252.604 276.616 253.052 276.336 253.476C276.026 253.951 275.616 254.362 275.306 254.801C275.249 254.873 275.141 254.801 275.198 254.714C275.871 253.924 276.347 252.987 276.588 251.978C276.72 251.505 276.823 251.024 276.898 250.538C276.955 250.171 276.955 249.818 277.006 249.43C274.654 249.916 272.414 250.839 270.403 252.151C270.022 252.403 269.683 252.662 269.302 252.936C269.732 253.425 270.096 253.97 270.382 254.556C270.805 255.325 271.162 256.13 271.447 256.961C271.909 258.628 272.148 260.35 272.16 262.08C272.16 262.099 272.152 262.117 272.139 262.131C272.125 262.144 272.107 262.152 272.088 262.152C272.069 262.152 272.051 262.144 272.037 262.131C272.024 262.117 272.016 262.099 272.016 262.08C271.91 260.389 271.508 258.729 270.828 257.177C270.519 256.411 270.16 255.665 269.755 254.945C269.546 254.57 269.323 254.225 269.093 253.85C268.97 253.656 268.834 253.462 268.718 253.26C266.867 254.758 265.296 256.575 264.082 258.624C264.688 259.409 265.173 260.28 265.522 261.209C265.949 262.188 266.307 263.196 266.594 264.226C267.11 266.21 267.497 268.225 267.754 270.259C267.754 270.346 267.631 270.36 267.617 270.259C267.374 268.21 266.873 266.2 266.126 264.276C265.781 263.333 265.406 262.404 265.01 261.482C264.592 260.621 264.222 259.736 263.902 258.833C262.742 260.844 261.968 263.054 261.619 265.349C261.619 265.435 261.468 265.414 261.482 265.349C262.095 261.755 263.537 258.353 265.694 255.413C264.773 255.701 263.858 255.982 262.966 256.356C261.828 256.826 260.753 257.438 259.769 258.178C259.762 258.228 259.682 258.106 259.754 258.055Z" fill="#263238"/>
<path d="M270.274 259.589C270.569 261.029 270.994 262.469 271.238 263.959C271.504 265.383 271.581 266.835 271.469 268.279C271.469 268.315 271.404 268.315 271.404 268.279C271.289 265.362 270.864 262.466 270.137 259.639C270.134 259.63 270.132 259.621 270.132 259.611C270.133 259.601 270.135 259.592 270.139 259.583C270.143 259.575 270.149 259.567 270.156 259.56C270.163 259.554 270.171 259.549 270.18 259.546C270.189 259.542 270.199 259.541 270.208 259.541C270.218 259.541 270.227 259.544 270.236 259.548C270.244 259.552 270.252 259.557 270.259 259.564C270.265 259.571 270.27 259.58 270.274 259.589Z" fill="#263238"/>
<path d="M261.482 255.197C262.099 254.704 262.786 254.306 263.52 254.016C264.266 253.76 265.032 253.567 265.81 253.44C265.889 253.44 265.91 253.57 265.81 253.577C265.047 253.705 264.303 253.933 263.599 254.254C262.888 254.544 262.197 254.883 261.533 255.269C261.528 255.272 261.523 255.274 261.517 255.276C261.511 255.277 261.506 255.277 261.5 255.276C261.494 255.275 261.489 255.273 261.484 255.27C261.479 255.267 261.475 255.263 261.472 255.258C261.468 255.253 261.466 255.248 261.465 255.242C261.463 255.237 261.463 255.231 261.464 255.225C261.465 255.219 261.467 255.214 261.471 255.209C261.474 255.204 261.478 255.2 261.482 255.197Z" fill="#263238"/>
<path d="M286.358 241.805C286.358 241.805 284.976 224.878 272.39 219.391C261.878 214.805 255.83 226.591 263.29 233.849C269.28 239.695 278.942 237.06 286.358 241.805Z" fill="#49DC92"/>
<path d="M265.622 222.667C267.537 223.442 269.404 224.327 271.217 225.317C272.715 226.186 274.158 227.148 275.537 228.197C275.328 227.772 275.148 227.318 274.932 226.901C274.608 226.246 274.255 225.612 273.866 224.986C273.091 223.707 272.159 222.529 271.094 221.479C271.029 221.414 271.13 221.321 271.195 221.386C272.256 222.438 273.232 223.575 274.111 224.784C274.546 225.399 274.945 226.038 275.306 226.699C275.679 227.303 275.963 227.958 276.149 228.643L276.293 228.751C278.491 230.5 280.505 232.469 282.305 234.626C282.269 234.461 282.233 234.295 282.189 234.144C281.952 233.316 281.7 232.502 281.426 231.682C280.888 229.945 280.123 228.287 279.151 226.75C279.145 226.734 279.145 226.716 279.15 226.7C279.156 226.684 279.167 226.67 279.182 226.662C279.197 226.653 279.214 226.65 279.231 226.653C279.247 226.656 279.263 226.664 279.273 226.678C280.262 228.22 281.143 229.83 281.909 231.494C282.257 232.308 282.548 233.146 282.78 234C282.963 234.554 283.1 235.122 283.19 235.699C283.737 236.419 284.277 237.096 284.781 237.816C290.189 245.513 292.896 254.815 293.551 264.125C293.741 266.9 293.786 269.683 293.688 272.462C293.672 275.268 293.431 278.068 292.968 280.836C292.932 281.009 292.658 280.958 292.665 280.786C292.723 278.338 292.982 275.904 293.025 273.456C293.072 271.003 292.993 268.549 292.788 266.105C292.39 261.221 291.471 256.393 290.045 251.705C288.592 246.905 286.448 242.343 283.68 238.162C283.147 238.061 282.621 237.917 282.103 237.78C281.585 237.643 280.843 237.456 280.217 237.283C279.009 236.969 277.834 236.537 276.71 235.994C276.695 235.985 276.684 235.97 276.68 235.952C276.676 235.934 276.679 235.916 276.689 235.901C276.698 235.885 276.713 235.875 276.731 235.871C276.749 235.866 276.767 235.87 276.782 235.879C277.891 236.482 279.094 236.896 280.339 237.103C281.325 237.298 282.348 237.427 283.334 237.658C282.428 236.323 281.452 235.037 280.411 233.806C278.01 234.029 275.589 233.849 273.247 233.273C272.002 232.972 270.778 232.592 269.582 232.135C268.322 231.646 267.127 231.026 265.889 230.501C265.795 230.465 265.889 230.328 265.939 230.378C268.196 231.605 270.658 232.41 273.204 232.754C275.449 233.114 277.719 233.302 279.993 233.316C279.101 232.286 278.172 231.293 277.185 230.35C273.881 227.203 269.985 224.309 265.601 222.804C265.493 222.775 265.536 222.631 265.622 222.667Z" fill="#263238"/>
<path d="M275.861 222.718C276.428 223.435 276.945 224.19 277.409 224.978C277.875 225.81 278.247 226.692 278.518 227.606C278.518 227.606 278.482 227.65 278.467 227.606C278.042 226.778 277.69 225.914 277.265 225.094C276.852 224.276 276.347 223.508 275.76 222.804C275.71 222.746 275.81 222.653 275.861 222.718Z" fill="#263238"/>
<path d="M264.161 228.355C264.978 228.808 265.842 229.17 266.738 229.435C267.6 229.725 268.477 229.965 269.366 230.155C269.409 230.155 269.402 230.234 269.366 230.227C268.44 230.13 267.527 229.93 266.645 229.63C265.772 229.305 264.92 228.925 264.096 228.492C264.009 228.434 264.081 228.312 264.161 228.355Z" fill="#263238"/>
<path d="M295.452 239.314C295.531 240.034 297.353 233.165 307.994 227.074C317.664 221.53 329.198 207.101 319.723 197.993C312.07 190.62 291.917 206.64 295.452 239.314Z" fill="#49DC92"/>
<path d="M288.122 278.748C288.279 271.586 288.844 264.44 289.814 257.342C290.657 250.822 292.162 244.405 294.307 238.19C295.099 235.951 296.006 233.755 296.986 231.581C296.931 230.739 296.946 229.893 297.029 229.054C297.086 227.966 297.18 226.894 297.281 225.806C297.382 224.719 297.49 223.646 297.619 222.566C297.749 221.486 297.979 220.406 298.022 219.341C298.022 219.24 298.181 219.262 298.159 219.341C297.945 220.472 297.818 221.618 297.778 222.768C297.691 223.812 297.634 224.856 297.598 225.9C297.562 226.944 297.598 227.995 297.598 229.046C297.598 229.421 297.598 229.824 297.598 230.227C298.598 228.11 299.671 226.03 300.838 223.999C300.118 219.586 301.054 214.978 301.954 210.665C301.954 210.578 302.105 210.614 302.083 210.701C301.635 212.954 301.394 215.244 301.363 217.541C301.32 219.355 301.406 221.141 301.414 222.977C301.666 222.545 301.925 222.106 302.184 221.681C303.566 219.427 305.064 217.217 306.605 215.071C306.476 214.026 306.51 212.967 306.706 211.932C306.883 210.768 307.14 209.618 307.476 208.49C307.822 207.367 308.196 206.258 308.657 205.171C309.118 204.084 309.73 203.011 310.176 201.866C310.212 201.773 310.356 201.866 310.298 201.924C309.734 202.986 309.288 204.106 308.966 205.265C308.618 206.353 308.327 207.458 308.095 208.577C307.872 209.693 307.692 210.816 307.534 211.954C307.426 212.674 307.361 213.473 307.231 214.229C309.512 211.18 312.002 208.293 314.683 205.589C314.748 205.524 314.842 205.625 314.777 205.69C310.726 210.248 307.111 215.175 303.977 220.406C303.854 220.601 303.746 220.802 303.631 221.004C304.222 220.63 304.891 220.342 305.446 220.032C306.475 219.463 307.505 218.894 308.549 218.333L311.558 216.684C312.077 216.396 312.588 216.094 313.114 215.827C313.741 215.545 314.343 215.21 314.914 214.826C314.993 214.769 315.079 214.891 314.993 214.942C313.97 215.503 313.063 216.338 312.077 216.972C311.09 217.606 310.075 218.218 309.038 218.794C307.145 219.845 305.093 220.608 303.228 221.674C301.939 223.934 300.751 226.26 299.628 228.622C300.758 227.902 301.91 227.182 303.084 226.555C303.84 226.13 304.596 225.713 305.359 225.31C306.126 224.96 306.85 224.525 307.519 224.014C307.584 223.956 307.678 224.057 307.613 224.114C306.374 225.23 305 226.186 303.523 226.958C302.155 227.758 300.773 228.528 299.354 229.226C298.217 231.718 297.194 234.266 296.273 236.844C291.794 249.53 290.146 262.994 289.361 276.365C289.13 280.354 289.008 284.335 288.958 288.331C288.907 292.327 289.116 296.302 289.109 300.283C289.109 300.406 288.914 300.434 288.9 300.283C288.418 296.748 288.338 293.148 288.18 289.591C288.022 286.034 288.043 282.37 288.122 278.748Z" fill="#263238"/>
<path d="M307.44 221.321C309.383 220.465 311.27 219.488 313.092 218.398C314.941 217.358 316.734 216.221 318.463 214.992C318.463 214.992 318.528 214.992 318.499 215.035C316.869 216.357 315.146 217.56 313.344 218.635C311.459 219.693 309.509 220.628 307.505 221.436C307.44 221.479 307.375 221.357 307.44 221.321Z" fill="#263238"/>
<path d="M304.38 206.986C304.531 206.366 304.733 205.754 304.934 205.157C304.926 205.147 304.922 205.134 304.922 205.121C304.922 205.108 304.926 205.095 304.934 205.085C305.064 204.739 305.208 204.401 305.345 204.062L305.395 203.94C305.426 203.875 305.452 203.807 305.474 203.738C305.474 203.738 305.518 203.738 305.51 203.738C305.503 203.738 305.446 203.976 305.41 204.091C305.394 204.157 305.374 204.222 305.352 204.286C304.648 206.643 304.121 209.05 303.775 211.486C303.775 211.558 303.646 211.565 303.646 211.486C303.749 209.966 303.994 208.459 304.38 206.986Z" fill="#263238"/>
<path d="M293.537 257.645C297.245 246.125 305.626 239.285 316.404 240.869C327.182 242.453 330.84 256.637 323.64 261.36C316.44 266.083 307.202 256.565 302.818 254.966C298.433 253.368 293.537 257.645 293.537 257.645Z" fill="#49DC92"/>
<path d="M292.55 287.057C292.392 285.754 292.262 284.45 292.118 283.14C291.845 280.534 291.557 277.927 291.283 275.321C290.786 270.554 290.635 265.824 292.003 261.173C293.168 256.95 295.591 253.183 298.951 250.373C300.199 249.353 301.579 248.507 303.055 247.86C304.249 246.254 305.882 245.029 307.757 244.332C310.083 243.504 312.538 243.092 315.007 243.115C315.094 243.115 315.108 243.245 315.007 243.252C312.664 243.274 310.348 243.764 308.196 244.692C307.273 245.09 306.394 245.585 305.575 246.168C305.065 246.546 304.583 246.963 304.135 247.414C306.16 246.682 308.318 246.395 310.464 246.571C311.237 246.643 312.003 246.78 312.754 246.982C313.302 246.775 313.876 246.645 314.46 246.593C315.218 246.506 315.984 246.506 316.742 246.593C318.3 246.798 319.821 247.217 321.264 247.838C321.278 247.848 321.288 247.862 321.293 247.878C321.298 247.894 321.296 247.912 321.29 247.927C321.283 247.943 321.271 247.955 321.255 247.963C321.24 247.97 321.223 247.972 321.206 247.968C319.8 247.439 318.326 247.112 316.829 246.996C316.11 246.939 315.388 246.939 314.669 246.996C314.269 247.031 313.873 247.091 313.481 247.176C316.621 248.114 319.327 250.135 321.12 252.878C321.163 252.958 321.055 253.037 321.005 252.965C319.948 251.375 318.546 250.044 316.902 249.071C315.259 248.099 313.418 247.51 311.515 247.349C311.278 247.349 311.04 247.349 310.795 247.313C310.898 247.67 310.98 248.033 311.04 248.4C311.184 248.911 311.35 249.422 311.53 249.926C311.895 250.963 312.325 251.975 312.818 252.958C313.314 253.955 313.877 254.917 314.503 255.838C315.116 256.821 315.841 257.729 316.663 258.545C316.735 258.61 316.627 258.71 316.562 258.638C315.806 257.753 314.95 256.961 314.244 256.032C313.563 255.143 312.949 254.205 312.408 253.224C311.865 252.228 311.403 251.19 311.026 250.121C310.831 249.559 310.658 248.983 310.507 248.407C310.388 248.066 310.316 247.71 310.291 247.349C309.048 247.335 307.809 247.485 306.605 247.795C307.433 250.301 308.304 252.907 310.068 254.938C310.126 255.002 310.01 255.096 309.953 255.017C309.108 253.932 308.341 252.789 307.656 251.597C307.002 250.438 306.517 249.192 306.216 247.896C304.13 248.479 302.174 249.457 300.456 250.776C297.214 253.331 294.834 256.819 293.638 260.77C292.381 265.014 291.977 269.465 292.45 273.866C292.889 279.425 293.609 284.976 293.839 290.549C293.839 290.909 293.306 291.11 293.177 290.714C292.853 289.518 292.643 288.293 292.55 287.057Z" fill="#263238"/>
<path d="M299.52 249.43C299.806 248.962 300.155 248.535 300.557 248.162C300.931 247.74 301.327 247.339 301.745 246.96C302.562 246.205 303.502 245.593 304.524 245.153C304.603 245.117 304.661 245.246 304.574 245.282C303.544 245.701 302.614 246.335 301.846 247.14C301.452 247.529 301.078 247.932 300.722 248.35C300.41 248.78 300.056 249.178 299.664 249.538C299.621 249.595 299.52 249.516 299.52 249.43Z" fill="#263238"/>
<path d="M316.836 250.949C317.856 251.831 318.818 252.779 319.716 253.786C320.592 254.801 321.362 255.903 322.013 257.076C322.013 257.112 322.013 257.141 321.955 257.112C320.419 254.939 318.686 252.912 316.778 251.057C316.685 250.999 316.8 250.891 316.836 250.949Z" fill="#263238"/>
<path d="M305.41 251.489C305.616 252.146 305.909 252.774 306.281 253.354C306.653 253.914 307.069 254.444 307.526 254.938C307.526 254.974 307.526 255.017 307.469 254.995C306.427 254.078 305.676 252.877 305.309 251.539C305.28 251.46 305.381 251.402 305.41 251.489Z" fill="#263238"/>
<path d="M276.883 281.318L277.639 290.318L279.965 317.772H304.87L307.188 290.318L307.951 281.318H276.883Z" fill="#455A64"/>
<path d="M276.883 281.318L277.639 290.318H307.188L307.951 281.318H276.883Z" fill="#263238"/>
<path d="M274.435 286.344H310.392V277.711H274.435V286.344Z" fill="#455A64"/>
<path d="M240.847 41.8392H119.167C117.535 41.8534 115.921 42.189 114.418 42.8271C112.915 43.4651 111.553 44.3931 110.409 45.5579C109.265 46.7226 108.361 48.1014 107.75 49.6155C107.139 51.1295 106.833 52.7491 106.848 54.3816V304.942C106.829 306.575 107.132 308.195 107.739 309.711C108.347 311.227 109.247 312.609 110.388 313.777C111.529 314.945 112.889 315.876 114.391 316.519C115.892 317.161 117.505 317.501 119.138 317.52H240.818C244.117 317.492 247.269 316.154 249.582 313.802C251.895 311.45 253.179 308.276 253.152 304.978V54.4176C253.171 52.7835 252.868 51.1616 252.259 49.6448C251.651 48.128 250.75 46.7459 249.607 45.5777C248.464 44.4095 247.102 43.478 245.599 42.8365C244.096 42.195 242.481 41.8562 240.847 41.8392ZM245.477 297.202C245.477 303.797 240.538 309.132 234.446 309.132H125.561C119.448 309.132 114.516 303.797 114.516 297.202V63.8784C114.516 50.4432 119.448 49.788 125.561 49.788H147.37C148.637 49.788 149.674 51.228 149.674 53.0136V53.784C149.674 57.9672 151.963 57.9816 154.778 57.9816H205.178C208.058 57.9816 210.283 57.9816 210.283 53.784V53.0136C210.283 51.228 211.306 49.788 212.602 49.788H234.41C240.502 49.788 245.441 51.5736 245.441 63.8784L245.477 297.202Z" fill="#263238"/>
<path d="M186.876 52.7544H173.117C172.892 52.7544 172.676 52.6649 172.516 52.5056C172.357 52.3463 172.267 52.1302 172.267 51.9048C172.267 51.6795 172.357 51.4634 172.516 51.3041C172.676 51.1447 172.892 51.0552 173.117 51.0552H186.876C187.101 51.0552 187.318 51.1447 187.477 51.3041C187.636 51.4634 187.726 51.6795 187.726 51.9048C187.726 52.1302 187.636 52.3463 187.477 52.5056C187.318 52.6649 187.101 52.7544 186.876 52.7544Z" fill="white"/>
<path d="M245.477 63.8784V297.202C245.477 303.797 240.538 309.132 234.447 309.132H125.561C119.448 309.132 114.516 303.797 114.516 297.202V63.8784C114.516 50.4432 119.448 49.788 125.561 49.788H147.37C148.637 49.788 149.674 51.228 149.674 53.0136V53.784C149.674 57.9672 151.963 57.9816 154.779 57.9816H205.179C208.059 57.9816 210.283 57.9816 210.283 53.784V53.0136C210.283 51.228 211.306 49.788 212.602 49.788H234.411C240.538 49.788 245.477 51.5736 245.477 63.8784Z" fill="white"/>
<path d="M241.805 51.84H210.485C210.823 50.652 211.651 49.8096 212.645 49.8096H234.468C237.276 49.7808 239.854 50.1696 241.805 51.84Z" fill="#DBDBDB"/>
<path d="M114.516 285.703V288.806H125.359V285.703H114.516ZM245.477 93.6L210.24 130.939H194.026V100.08H200.47V96.9552H190.901V130.932H173.326V57.9816H167.091V79.8408H114.531V86.076H167.091V130.939H116.158V143.179H114.516V146.304H116.158V192.665L125.518 214.106H114.516V220.342H128.261L135.598 237.11C131.055 239.079 127.302 242.51 124.934 246.858C122.566 251.205 121.72 256.22 122.53 261.104C123.341 265.987 125.761 270.46 129.406 273.81C133.051 277.16 137.712 279.194 142.647 279.59L157.903 304.56L153.303 309.161H168.034L149.645 279.122C152.711 278.385 155.586 277.003 158.076 275.068C160.567 273.134 162.617 270.691 164.09 267.902C165.562 265.113 166.424 262.042 166.618 258.895C166.811 255.747 166.332 252.594 165.211 249.646L208.728 228.946H245.448V222.718H228.046L191.52 183.002H245.463V179.885H188.64L149.357 137.174H212.89L234.36 114.408L245.448 125.496V116.683L238.651 109.879L245.448 102.679L245.477 93.6ZM144.447 273.485C141.285 273.486 138.194 272.55 135.564 270.795C132.935 269.039 130.885 266.543 129.674 263.623C128.463 260.702 128.146 257.488 128.762 254.387C129.377 251.286 130.899 248.437 133.134 246.201C135.369 243.965 138.218 242.442 141.318 241.824C144.419 241.207 147.633 241.523 150.554 242.733C153.476 243.942 155.972 245.991 157.729 248.62C159.486 251.249 160.423 254.339 160.423 257.501C160.42 261.738 158.735 265.8 155.74 268.796C152.745 271.793 148.683 273.479 144.447 273.485ZM219.6 222.689H207.36L162.195 244.152C160.123 241.403 157.442 239.173 154.362 237.636C151.283 236.099 147.888 235.298 144.447 235.296C143.52 235.299 142.594 235.357 141.675 235.469L122.4 191.369V137.174H140.904L219.6 222.689ZM224.237 309.132H228.651L245.499 292.277V287.863L224.237 309.132Z" fill="#EBEBEB"/>
<path d="M136.8 141.898H127.735V150.962H136.8V141.898Z" fill="#DBDBDB"/>
<path d="M221.897 176.645V159.149H215.532V151.834H204.322V176.645H221.897Z" fill="#DBDBDB"/>
<path d="M190.814 57.9816V75.5784H181.325V64.8648H176.191V57.9816H190.814Z" fill="#DBDBDB"/>
<path d="M245.477 63.8712V69.9408H237.557V54.6696H243.936C244.915 56.7576 245.477 59.7168 245.477 63.8712Z" fill="#DBDBDB"/>
<path d="M196.481 128.297V115.286H220.86L207.691 128.455L196.481 128.297Z" fill="#DBDBDB"/>
<path d="M188.446 116.208H176.198V128.455H188.446V116.208Z" fill="#DBDBDB"/>
<path d="M164.16 88.5168H149.407V102.089H164.16V88.5168Z" fill="#DBDBDB"/>
<path d="M164.167 104.753V128.455H146.117L134.611 116.95V104.753H164.167Z" fill="#DBDBDB"/>
<path d="M131.357 119.563L140.422 128.628H116.229V119.563H131.357Z" fill="#DBDBDB"/>
<path d="M130.061 234.094H114.516V223.178H125.662L130.061 234.094Z" fill="#DBDBDB"/>
<path d="M125.827 276.163V281.405H114.516V258.091H117.605C118.467 264.805 121.333 271.102 125.827 276.163Z" fill="#DBDBDB"/>
<path d="M180 230.875L170.518 210.391H158.998L139.27 219.542L144.425 230.796H144.468C151.472 230.789 158.198 233.542 163.188 238.457L180 230.875Z" fill="#DBDBDB"/>
<path d="M245.477 205.366V218.966H230.645L218.131 205.366H245.477Z" fill="#DBDBDB"/>
<path d="M152.316 303.386L146.887 309.146H125.554C124.761 309.144 123.971 309.052 123.199 308.873V302.393H132.43V288.108L139.378 282.262L152.316 303.386Z" fill="#DBDBDB"/>
<path d="M196.243 279.36L177.523 259.848L170.323 265.457C169.271 268.863 167.557 272.027 165.28 274.77C163.003 277.513 160.208 279.78 157.054 281.441L172.699 307.015L196.243 279.36Z" fill="#DBDBDB"/>
<path d="M175.86 251.273L208.728 235.022H225.123V263.606L199.563 276.228L175.86 251.273Z" fill="#DBDBDB"/>
<path d="M245.462 297.727C245.239 303.487 241.229 308.182 236.066 309.003H234.187L245.462 297.727Z" fill="#DBDBDB"/>
<path d="M127.735 154.742V190.663L137.758 215.186L156.046 206.122H198.706L150.869 154.742H127.735Z" fill="#49DC92"/>
<path d="M231.768 103.363H196.481V112.205H223.43L231.768 103.363Z" fill="#DBDBDB"/>
<path d="M120.816 211.183H114.516V196.589L120.816 211.183Z" fill="#DBDBDB"/>
<path d="M245.477 235.022H229.666V253.714H245.477V235.022Z" fill="#DBDBDB"/>
<path d="M245.477 256.63H229.666V263.189H245.477V256.63Z" fill="#DBDBDB"/>
<path d="M225.734 302.803L219.406 309.132H177.854L199.85 282.269L225.734 302.803Z" fill="#DBDBDB"/>
<path d="M228.003 299.714L238.68 289.469L225.727 278.194V268.056L202.903 279.684L228.003 299.714Z" fill="#49DC92"/>
<path d="M245.477 266.083V281.981L241.243 285.962L229.666 276.228V266.083H245.477Z" fill="#DBDBDB"/>
<path d="M118.577 292.37V306.446C117.284 305.281 116.253 303.854 115.553 302.26C114.853 300.666 114.5 298.942 114.516 297.202V292.37H118.577Z" fill="#DBDBDB"/>
<path d="M128.7 293.846H123.199V299.347H128.7V293.846Z" fill="#DBDBDB"/>
<path d="M163.217 57.9816V76.104H128.326V55.3608L134.395 49.7808H147.355C148.615 49.7808 149.652 51.2208 149.652 53.0136V53.784C149.652 57.9672 151.949 57.9816 154.757 57.9816H163.217Z" fill="#DBDBDB"/>
<path d="M125.374 64.9728H114.516V76.0896H125.374V64.9728Z" fill="#DBDBDB"/>
<path d="M125.374 55.8864V62.1H114.574C114.61 60.0011 114.903 57.9144 115.445 55.8864H125.374Z" fill="#DBDBDB"/>
<path d="M131.119 49.7808L127.282 53.3808H116.482C118.469 50.0328 121.795 49.7808 125.561 49.7808H131.119Z" fill="#DBDBDB"/>
<path d="M200.714 186.775L215.532 202.334H229.666V186.775H200.714Z" fill="#DBDBDB"/>
<path d="M245.477 195.185H232.603V202.342H245.477V195.185Z" fill="#DBDBDB"/>
<path d="M240.17 186.775H232.603V193.277H240.17V186.775Z" fill="#DBDBDB"/>
<path d="M245.477 186.775H242.057V193.277H245.477V186.775Z" fill="#DBDBDB"/>
<path d="M174.96 210.391H198.706V221.746L183.521 228.636L174.96 210.391Z" fill="#DBDBDB"/>
<path d="M144.454 268.25C150.339 268.25 155.11 263.48 155.11 257.594C155.11 251.709 150.339 246.938 144.454 246.938C138.568 246.938 133.798 251.709 133.798 257.594C133.798 263.48 138.568 268.25 144.454 268.25Z" fill="#49DC92"/>
<path d="M120.219 88.5168H114.516V96.7032H120.219V88.5168Z" fill="#DBDBDB"/>
<path d="M131.09 116.611V88.524H122.393V111.103H116.229V116.611H131.09Z" fill="#DBDBDB"/>
<path d="M146.931 88.5168H134.611V101.333H146.931V88.5168Z" fill="#DBDBDB"/>
<path d="M120.219 98.28H114.516V108.626H120.219V98.28Z" fill="#DBDBDB"/>
<path d="M242.849 159.149H224.546V176.652H242.849V159.149Z" fill="#DBDBDB"/>
<path d="M157.716 140.299L176.81 161.078H200.779V140.299H157.716Z" fill="#DBDBDB"/>
<path d="M179.532 163.476L191.65 176.652H200.714V163.476H179.532Z" fill="#DBDBDB"/>
<path d="M215.525 140.299H204.322V148.975H215.525V140.299Z" fill="#DBDBDB"/>
<path d="M242.856 148.615V129.103L234 119.57L218.563 136.123V155.052H236.866V148.615H242.856Z" fill="#49DC92"/>
<path d="M245.477 107.546V112.781L242.95 110.304L245.477 107.546Z" fill="#DBDBDB"/>
<path d="M245.477 72.7849V88.8769L234.85 100.548H220.86V72.7849H245.477Z" fill="#DBDBDB"/>
<path d="M217.613 82.9512H203.998V100.548H217.613V82.9512Z" fill="#49DC92"/>
<path d="M234.85 54.6696V69.9408H217.606V80.7408H203.998V57.9816H205.2C207.814 57.9816 209.952 57.9816 210.24 54.6696H234.85Z" fill="#DBDBDB"/>
<path d="M202.241 57.9816H192.47V69.5736H202.241V57.9816Z" fill="#DBDBDB"/>
<path d="M202.248 77.4792H176.198V90.288H202.248V77.4792Z" fill="#DBDBDB"/>
<path d="M202.248 71.424H192.47V75.5784H202.248V71.424Z" fill="#DBDBDB"/>
<path d="M188.446 113.76H181.325L176.198 108.893V94.7376H188.446V113.76Z" fill="#DBDBDB"/>
<path d="M143.604 55.0296C143.531 55.0956 143.461 55.1653 143.395 55.2384L143.273 55.3536C142.733 54.8172 142.003 54.5161 141.242 54.5161C140.481 54.5161 139.752 54.8172 139.212 55.3536L139.097 55.2312L138.888 55.0224L139.154 54.7848C139.345 54.6321 139.553 54.5016 139.774 54.396C140.03 54.2664 140.304 54.1743 140.587 54.1224C140.723 54.0962 140.86 54.0769 140.998 54.0648H141.358H141.631C141.877 54.0971 142.119 54.1575 142.351 54.2448C142.528 54.3093 142.699 54.3888 142.862 54.4824C143.033 54.5803 143.195 54.6935 143.345 54.8208L143.568 55.0224L143.604 55.0296Z" fill="#A6A6A6"/>
<path d="M139.874 56.016L139.543 55.6848C139.909 55.3181 140.384 55.0805 140.897 55.008C141.266 54.9506 141.643 54.9821 141.998 55.0998C142.352 55.2175 142.673 55.418 142.934 55.6848C142.826 55.7928 142.718 55.908 142.603 56.016C142.426 55.8356 142.214 55.6929 141.98 55.5964C141.746 55.4999 141.495 55.4516 141.242 55.4544C140.988 55.4523 140.737 55.5009 140.502 55.5973C140.267 55.6937 140.054 55.8361 139.874 56.016Z" fill="#A6A6A6"/>
<path d="M142.272 56.3472L141.941 56.6784C141.846 56.5852 141.733 56.5118 141.609 56.4624C141.486 56.413 141.354 56.3885 141.221 56.3904C141.087 56.3878 140.954 56.4126 140.83 56.4634C140.706 56.5142 140.594 56.5898 140.501 56.6856L140.169 56.3544C140.304 56.2101 140.466 56.0948 140.647 56.0158C140.827 55.9368 141.022 55.8956 141.219 55.895C141.416 55.8943 141.611 55.9341 141.792 56.0119C141.973 56.0897 142.137 56.2038 142.272 56.3472Z" fill="#A6A6A6"/>
<path d="M141.538 56.9808C141.539 57.0202 141.532 57.0594 141.517 57.096C141.503 57.1327 141.481 57.1661 141.454 57.1942C141.426 57.2224 141.393 57.2448 141.357 57.2601C141.321 57.2754 141.282 57.2832 141.242 57.2832C141.203 57.2832 141.163 57.2754 141.127 57.2602C141.09 57.245 141.057 57.2227 141.029 57.1947C141 57.1666 140.978 57.1332 140.963 57.0966C140.948 57.0599 140.94 57.0205 140.94 56.9808C140.94 56.9415 140.948 56.9025 140.963 56.8662C140.978 56.8299 141.001 56.797 141.029 56.7695C141.057 56.742 141.091 56.7204 141.127 56.706C141.164 56.6916 141.203 56.6847 141.242 56.6856C141.321 56.6856 141.396 56.7167 141.451 56.7721C141.506 56.8275 141.538 56.9025 141.538 56.9808Z" fill="#A6A6A6"/>
<path d="M123.048 55.6633C123.048 55.4909 123.099 55.3225 123.195 55.1792C123.291 55.036 123.427 54.9243 123.586 54.8584C123.745 54.7924 123.92 54.7752 124.089 54.8088C124.258 54.8424 124.414 54.9254 124.535 55.0472C124.657 55.1691 124.74 55.3243 124.774 55.4933C124.807 55.6623 124.79 55.8375 124.724 55.9966C124.658 56.1558 124.547 56.2919 124.403 56.3876C124.26 56.4834 124.092 56.5345 123.919 56.5345C123.805 56.5354 123.691 56.5135 123.585 56.4701C123.479 56.4267 123.382 56.3625 123.301 56.2814C123.22 56.2003 123.156 56.1039 123.112 55.9978C123.069 55.8916 123.047 55.7779 123.048 55.6633Z" fill="#A6A6A6"/>
<path d="M125.784 55.6633C125.784 55.4909 125.835 55.3225 125.931 55.1792C126.027 55.036 126.163 54.9243 126.322 54.8584C126.481 54.7924 126.656 54.7752 126.825 54.8088C126.994 54.8424 127.149 54.9254 127.271 55.0472C127.393 55.1691 127.476 55.3243 127.51 55.4933C127.543 55.6623 127.526 55.8375 127.46 55.9966C127.394 56.1558 127.282 56.2919 127.139 56.3876C126.996 56.4834 126.827 56.5345 126.655 56.5345C126.541 56.5354 126.427 56.5135 126.321 56.4701C126.215 56.4267 126.118 56.3625 126.037 56.2814C125.956 56.2003 125.892 56.1039 125.848 55.9978C125.805 55.8916 125.783 55.7779 125.784 55.6633Z" fill="#A6A6A6"/>
<path d="M128.52 55.6632C128.52 55.4906 128.571 55.3219 128.667 55.1785C128.763 55.0351 128.9 54.9234 129.06 54.8577C129.219 54.792 129.395 54.7751 129.564 54.8093C129.733 54.8435 129.888 54.9272 130.01 55.0498C130.131 55.1723 130.214 55.3283 130.247 55.4977C130.279 55.6672 130.261 55.8426 130.194 56.0016C130.127 56.1607 130.014 56.2963 129.87 56.3911C129.726 56.486 129.557 56.5359 129.384 56.5344C129.27 56.5344 129.157 56.5118 129.052 56.468C128.946 56.4241 128.851 56.3598 128.771 56.2788C128.69 56.1978 128.627 56.1017 128.584 55.9961C128.541 55.8904 128.519 55.7773 128.52 55.6632Z" fill="#A6A6A6"/>
<path d="M131.256 55.6632C131.256 55.4906 131.307 55.3219 131.403 55.1785C131.5 55.0351 131.636 54.9234 131.796 54.8577C131.955 54.792 132.131 54.7751 132.3 54.8093C132.469 54.8435 132.624 54.9272 132.746 55.0498C132.867 55.1723 132.95 55.3283 132.983 55.4977C133.015 55.6672 132.997 55.8426 132.93 56.0016C132.863 56.1607 132.75 56.2963 132.606 56.3911C132.462 56.486 132.293 56.5359 132.12 56.5344C132.006 56.5344 131.893 56.5118 131.788 56.468C131.683 56.4241 131.587 56.3598 131.507 56.2788C131.426 56.1978 131.363 56.1017 131.32 55.9961C131.277 55.8904 131.255 55.7773 131.256 55.6632Z" fill="#A6A6A6"/>
<path d="M133.985 55.6633C133.985 55.4909 134.036 55.3225 134.132 55.1792C134.227 55.036 134.364 54.9243 134.523 54.8584C134.682 54.7924 134.857 54.7752 135.026 54.8088C135.195 54.8424 135.35 54.9254 135.472 55.0472C135.594 55.1691 135.677 55.3243 135.711 55.4933C135.744 55.6623 135.727 55.8375 135.661 55.9966C135.595 56.1558 135.483 56.2919 135.34 56.3876C135.197 56.4834 135.028 56.5345 134.856 56.5345C134.741 56.5354 134.628 56.5135 134.522 56.4701C134.415 56.4267 134.319 56.3625 134.238 56.2814C134.157 56.2003 134.093 56.1039 134.049 55.9978C134.006 55.8916 133.984 55.7779 133.985 55.6633Z" fill="#A6A6A6"/>
<path d="M235.469 54.468H228.766V57.384H235.469V54.468Z" fill="#A6A6A6"/>
<path d="M235.656 57.5568H228.586V54.288H235.656V57.5568ZM228.946 57.1968H235.296V54.648H228.96L228.946 57.1968Z" fill="white"/>
<path d="M233.734 54.8424H229.176V57.0024H233.734V54.8424Z" fill="#A6A6A6"/>
<path d="M236.282 55.044H235.656V56.7936H236.282V55.044Z" fill="#A6A6A6"/>
<path d="M186.149 237.11L185.566 235.8L209.772 225.043H224.762L140.882 133.459H169.582V79.5456H171.022V134.899H144.151L228.031 226.483H210.082L186.149 237.11Z" fill="#49DC92"/>
<path d="M175.169 71.0568C174.96 68.6232 173.246 66.24 170.301 66.24C167.357 66.24 165.686 68.6592 165.441 71.0928C165.074 74.844 167.601 78.2496 170.301 81.3528C173.009 78.2136 175.543 74.808 175.169 71.0568ZM170.301 73.7568C169.775 73.7554 169.261 73.5979 168.823 73.3043C168.386 73.0107 168.046 72.5942 167.845 72.1073C167.645 71.6204 167.593 71.085 167.697 70.5687C167.8 70.0524 168.055 69.5784 168.427 69.2065C168.8 68.8347 169.275 68.5817 169.792 68.4795C170.308 68.3773 170.843 68.4304 171.33 68.6323C171.816 68.8341 172.232 69.1756 172.524 69.6135C172.817 70.0514 172.973 70.5662 172.973 71.0928C172.974 71.4435 172.905 71.7909 172.771 72.1151C172.637 72.4392 172.44 72.7335 172.192 72.9812C171.944 73.2289 171.649 73.4249 171.324 73.558C171 73.6911 170.652 73.7587 170.301 73.7568Z" fill="#49DC92"/>
<path d="M182.542 245.815L182.477 238.349L176.465 233.921L191.167 234.108L182.542 245.815Z" fill="#37474F"/>
<path d="M159.84 302.285L144 275.645L145.138 275.537C150.974 274.625 156.237 271.506 159.84 266.825C165.665 259.142 160.502 248.213 160.452 248.105L160.128 247.45L183.506 236.765L184.104 238.075L162.05 248.155C163.145 250.776 166.55 260.395 160.985 267.703C157.367 272.425 152.144 275.658 146.304 276.79L161.028 301.55L159.84 302.285Z" fill="#37474F"/>
<path d="M165.29 293.89C165.045 291.456 163.368 289.037 160.423 289.037C157.478 289.037 155.808 291.456 155.563 293.89C155.196 297.641 157.723 301.046 160.423 304.15C163.13 301.046 165.665 297.641 165.29 293.89ZM160.423 296.59C159.896 296.588 159.382 296.431 158.945 296.137C158.508 295.844 158.167 295.427 157.967 294.94C157.766 294.453 157.715 293.918 157.818 293.402C157.922 292.885 158.176 292.411 158.549 292.039C158.922 291.668 159.397 291.415 159.913 291.312C160.43 291.21 160.965 291.263 161.451 291.465C161.938 291.667 162.353 292.008 162.646 292.446C162.938 292.884 163.094 293.399 163.094 293.926C163.095 294.276 163.027 294.624 162.893 294.948C162.759 295.272 162.562 295.566 162.314 295.814C162.065 296.062 161.77 296.258 161.446 296.391C161.121 296.524 160.774 296.592 160.423 296.59Z" fill="#49DC92"/>
<path d="M269.907 207.713C269.909 212.06 268.586 216.305 266.113 219.88C263.64 223.456 260.136 226.192 256.067 227.724C251.999 229.256 247.56 229.51 243.343 228.454C239.126 227.397 235.332 225.08 232.467 221.81H190.937L185.127 232.56L179.316 221.81H174.01V193.615H232.474C235.341 190.349 239.136 188.035 243.353 186.981C247.569 185.927 252.006 186.183 256.073 187.716C260.14 189.248 263.644 191.983 266.116 195.557C268.589 199.131 269.914 203.374 269.914 207.72L269.907 207.713Z" fill="white"/>
<path d="M269.906 207.713C269.879 209.872 269.559 212.018 268.956 214.092C268.29 216.135 267.34 218.074 266.134 219.852C263.65 223.439 260.135 226.186 256.054 227.729C255.552 227.932 255.04 228.11 254.52 228.262L252.95 228.665C252.425 228.773 251.885 228.838 251.352 228.931C250.818 229.017 250.28 229.068 249.739 229.082C247.575 229.236 245.399 229.044 243.295 228.514C239.052 227.463 235.23 225.145 232.337 221.868L232.445 221.918L190.908 222.034L191.131 221.897L185.371 232.661L185.119 233.136L184.867 232.661L179.028 221.926L179.309 222.098H174.002H173.664V221.76C173.664 217.058 173.664 212.364 173.664 207.662L173.707 193.565V193.262H174.01L232.474 193.421L232.33 193.565V193.514L232.366 193.471C235.275 190.208 239.111 187.91 243.36 186.883C245.464 186.353 247.64 186.161 249.804 186.314C250.344 186.329 250.883 186.379 251.417 186.466C251.95 186.559 252.49 186.624 253.015 186.732L254.585 187.135C255.105 187.287 255.617 187.465 256.118 187.668C260.199 189.208 263.715 191.952 266.198 195.538C267.404 197.329 268.354 199.28 269.021 201.334C269.602 203.41 269.9 205.556 269.906 207.713ZM269.906 207.713C269.868 205.556 269.536 203.415 268.92 201.348C268.238 199.301 267.268 197.362 266.04 195.588C263.562 192.035 260.061 189.32 256.003 187.805C255.507 187.605 255 187.435 254.484 187.294L252.922 186.898C252.396 186.79 251.856 186.732 251.33 186.646C250.8 186.558 250.263 186.509 249.725 186.502C247.581 186.359 245.427 186.558 243.346 187.092C239.167 188.147 235.407 190.444 232.56 193.68L232.596 193.586V193.73H232.452L173.988 193.889L174.29 193.586L174.334 207.684C174.334 212.386 174.334 217.08 174.334 221.782L173.995 221.443H179.302H179.496L179.582 221.616L185.342 232.38H184.838L190.678 221.645L190.75 221.508H190.901L232.438 221.623H232.56L232.603 221.674C235.444 224.931 239.212 227.242 243.403 228.298C245.484 228.837 247.638 229.039 249.782 228.895C250.32 228.887 250.857 228.839 251.388 228.751C251.914 228.672 252.454 228.607 252.979 228.506L254.534 228.103C255.053 227.963 255.563 227.792 256.061 227.592C260.121 226.076 263.624 223.362 266.105 219.809C267.318 218.032 268.276 216.093 268.949 214.049C269.552 211.99 269.874 209.858 269.906 207.713Z" fill="#263238"/>
<path d="M257.386 224.118C266.451 219.231 269.838 207.92 264.951 198.854C260.063 189.789 248.752 186.402 239.687 191.289C230.621 196.177 227.234 207.488 232.122 216.553C237.009 225.619 248.32 229.006 257.386 224.118Z" fill="#49DC92"/>
<path d="M189.778 205.013C189.533 202.579 187.855 200.16 184.911 200.16C181.966 200.16 180.295 202.579 180.051 205.013C179.683 208.764 182.211 212.169 184.911 215.273C187.618 212.169 190.152 208.8 189.778 205.013ZM184.911 207.713C184.384 207.711 183.87 207.554 183.432 207.26C182.995 206.967 182.655 206.55 182.454 206.063C182.254 205.576 182.202 205.041 182.306 204.525C182.409 204.008 182.664 203.534 183.037 203.162C183.409 202.791 183.884 202.538 184.401 202.435C184.917 202.333 185.453 202.386 185.939 202.588C186.425 202.79 186.841 203.131 187.133 203.569C187.426 204.007 187.582 204.522 187.582 205.049C187.583 205.399 187.514 205.747 187.38 206.071C187.246 206.395 187.049 206.689 186.801 206.937C186.553 207.185 186.258 207.381 185.933 207.514C185.609 207.647 185.261 207.715 184.911 207.713Z" fill="#49DC92"/>
<path d="M224.546 202.392H195.084V203.278H224.546V202.392Z" fill="#A6A6A6"/>
<path d="M219.917 204.854H195.084V205.74H219.917V204.854Z" fill="#A6A6A6"/>
<path d="M223.092 207.317H195.084V208.202H223.092V207.317Z" fill="#A6A6A6"/>
<path d="M211.81 209.779H195.084V210.665H211.81V209.779Z" fill="#A6A6A6"/>
<path d="M261.166 221.4C257.726 224.581 253.215 226.352 248.53 226.361C247.686 226.361 246.844 226.298 246.01 226.174C245.455 226.11 244.904 226.014 244.361 225.886C245.038 223.703 245.881 221.575 246.881 219.521C246.96 219.348 247.061 219.182 247.14 219.038C247.27 218.822 247.412 218.613 247.565 218.412C248.285 217.519 250.085 217.08 252.05 217.044C252.905 217.024 253.759 217.07 254.606 217.181C255.287 217.263 255.959 217.402 256.615 217.598L256.738 217.634H256.81L257.278 217.807L257.688 217.994C257.704 217.99 257.722 217.99 257.738 217.994C257.968 218.099 258.183 218.232 258.379 218.39C258.509 218.498 258.653 218.621 258.79 218.75C259.667 219.553 260.463 220.44 261.166 221.4Z" fill="#EBEBEB"/>
<path d="M261.475 221.112C261.377 221.213 261.274 221.31 261.166 221.4C259.734 222.732 258.098 223.826 256.32 224.64C256.853 221.04 257.263 218.254 257.321 217.8C257.324 217.776 257.324 217.752 257.321 217.728C257.457 217.807 257.59 217.894 257.717 217.987C257.733 217.983 257.751 217.983 257.767 217.987C258.019 218.153 258.379 218.405 258.818 218.743C259.758 219.47 260.646 220.261 261.475 221.112Z" fill="#37474F"/>
<path d="M247.291 218.16L247.155 219.031C247.155 219.247 247.075 219.499 247.039 219.751C247.003 220.003 246.967 220.198 246.917 220.471C246.687 221.911 246.363 223.963 246.01 226.166C245.455 226.103 244.904 226.007 244.361 225.878L244.167 225.835C244.862 223.438 245.753 221.102 246.831 218.851C246.969 218.611 247.123 218.38 247.291 218.16Z" fill="#37474F"/>
<path d="M249.487 224.575C251.647 224.82 255.708 221.832 256.838 218.664C256.918 218.448 256.277 216.389 255.622 213.847C255.226 212.306 254.822 210.578 254.57 208.98C254.52 208.649 244.908 213.005 244.908 213.005C245.798 214.917 246.45 216.931 246.852 219.002C246.873 219.225 246.873 219.449 246.852 219.672V219.78C246.888 221.04 247.19 224.309 249.487 224.575Z" fill="#D3766A"/>
<path d="M246.888 219.672C246.885 219.708 246.885 219.744 246.888 219.78C247.236 219.77 247.582 219.734 247.925 219.672C253.814 218.606 254.203 210.96 254.203 209.038C252.461 209.578 244.901 213.005 244.901 213.005C245.792 214.92 246.444 216.936 246.845 219.01C246.877 219.229 246.891 219.45 246.888 219.672Z" fill="#263238"/>
<path d="M254.462 196.214C256.003 199.656 255.413 210.226 253.159 212.854C249.89 216.655 243.893 217.735 240.494 213.66C237.204 209.707 238.212 195.941 240.79 193.5C244.591 189.878 252.18 191.131 254.462 196.214Z" fill="#D3766A"/>
<path d="M247.14 203.674C247.14 203.674 247.19 203.71 247.19 203.738C247.133 204.458 247.19 205.272 247.817 205.538C247.817 205.538 247.817 205.589 247.817 205.582C247.025 205.43 246.96 204.336 247.14 203.674Z" fill="#263238"/>
<path d="M247.81 202.961C248.962 202.961 248.933 205.236 247.867 205.257C246.802 205.279 246.845 202.982 247.81 202.961Z" fill="#263238"/>
<path d="M242.777 203.76C242.777 203.76 242.719 203.76 242.719 203.825C242.719 204.545 242.633 205.358 241.999 205.589C241.999 205.589 241.999 205.632 241.999 205.625C242.777 205.502 242.906 204.415 242.777 203.76Z" fill="#263238"/>
<path d="M242.15 202.99C240.999 202.889 240.883 205.186 241.949 205.279C243.014 205.373 243.108 203.04 242.15 202.99Z" fill="#263238"/>
<path d="M248.731 201.917C248.43 201.826 248.134 201.718 247.846 201.593C247.517 201.523 247.221 201.345 247.003 201.089C246.949 200.995 246.929 200.886 246.944 200.779C246.96 200.671 247.011 200.573 247.09 200.498C247.264 200.373 247.469 200.297 247.683 200.278C247.897 200.259 248.113 200.298 248.307 200.39C248.728 200.519 249.088 200.795 249.322 201.168C249.367 201.257 249.386 201.358 249.376 201.458C249.366 201.557 249.328 201.652 249.266 201.731C249.204 201.809 249.12 201.869 249.026 201.902C248.931 201.935 248.829 201.94 248.731 201.917Z" fill="#263238"/>
<path d="M241.272 201.816C241.589 201.765 241.877 201.672 242.186 201.593C242.521 201.556 242.834 201.412 243.079 201.182C243.145 201.097 243.181 200.992 243.181 200.883C243.181 200.775 243.145 200.67 243.079 200.585C242.92 200.442 242.724 200.344 242.514 200.302C242.304 200.26 242.086 200.276 241.884 200.347C241.45 200.424 241.06 200.661 240.79 201.009C240.734 201.091 240.703 201.187 240.701 201.286C240.698 201.384 240.723 201.482 240.774 201.566C240.825 201.651 240.898 201.72 240.987 201.764C241.075 201.808 241.174 201.826 241.272 201.816Z" fill="#263238"/>
<path d="M246.485 208.152C246.303 208.433 246.064 208.673 245.784 208.857C245.504 209.04 245.188 209.163 244.858 209.218C244.566 209.257 244.271 209.257 243.979 209.218C243.924 209.225 243.869 209.225 243.814 209.218H243.655C243.576 209.218 243.533 209.138 243.519 209.059C243.515 209.035 243.515 209.011 243.519 208.987V208.93C243.519 208.375 243.576 207.54 243.576 207.54C243.375 207.641 242.345 208.087 242.367 207.806C242.456 205.33 242.798 202.869 243.389 200.462C243.389 200.445 243.396 200.429 243.408 200.417C243.42 200.404 243.437 200.398 243.454 200.398C243.471 200.398 243.487 200.404 243.5 200.417C243.512 200.429 243.519 200.445 243.519 200.462C243.447 202.752 242.971 205.013 242.863 207.302C243.231 207.142 243.618 207.03 244.015 206.971C244.095 206.971 243.864 208.584 243.886 208.829C244.335 208.878 244.79 208.836 245.222 208.706C245.655 208.576 246.058 208.361 246.406 208.073C246.478 208.08 246.528 208.08 246.485 208.152Z" fill="#263238"/>
<path d="M244.311 208.973C244.606 209.368 244.998 209.68 245.448 209.88C245.7 209.979 245.976 209.999 246.24 209.938C246.809 209.794 246.831 209.268 246.73 208.822C246.676 208.585 246.593 208.355 246.485 208.138C245.866 208.638 245.105 208.93 244.311 208.973Z" fill="#263238"/>
<path d="M245.448 209.88C245.7 209.979 245.976 209.999 246.24 209.938C246.809 209.794 246.83 209.268 246.73 208.822C246.428 208.829 246.138 208.937 245.906 209.129C245.674 209.321 245.512 209.586 245.448 209.88Z" fill="#FF9ABB"/>
<path d="M239.227 196.97C239.63 196.07 240.091 195.163 240.667 194.99C241.243 194.818 242.33 196.43 243.547 196.524C245.218 196.654 246.341 194.789 248.681 194.645C251.021 194.501 252.425 197.33 252.461 202.097C252.461 206.359 255.06 206.784 255.06 206.784C255.06 206.784 256.716 197.424 254.095 194.27C251.474 191.117 245.455 189.698 241.315 192.622C239.81 193.68 239.227 196.97 239.227 196.97Z" fill="#263238"/>
<path d="M252.922 205.085C252.922 205.085 254.909 201.485 256.522 202.162C258.134 202.838 256.882 207.878 255.168 208.735C254.955 208.859 254.72 208.939 254.476 208.969C254.232 209 253.984 208.981 253.748 208.914C253.511 208.847 253.29 208.733 253.099 208.578C252.908 208.424 252.749 208.232 252.634 208.015L252.922 205.085Z" fill="#D3766A"/>
<path d="M256.126 203.602C256.126 203.602 256.126 203.602 256.126 203.645C254.923 204.286 254.391 205.517 254.052 206.762C254.113 206.63 254.202 206.513 254.313 206.418C254.423 206.323 254.552 206.253 254.692 206.212C254.832 206.171 254.979 206.16 255.123 206.181C255.267 206.201 255.405 206.252 255.528 206.33C255.528 206.33 255.528 206.41 255.528 206.402C255.301 206.354 255.064 206.378 254.851 206.471C254.638 206.564 254.46 206.721 254.34 206.921C254.14 207.254 253.978 207.609 253.858 207.979C253.807 208.094 253.599 208.058 253.627 207.922C253.44 206.302 254.427 203.94 256.126 203.602Z" fill="#263238"/>
<path d="M61.1496 122.81C63.4248 123.998 63.8639 128.102 71.0928 127.85C72.1224 127.85 72.9576 127.411 73.908 127.757C75.2832 128.268 76.3776 129.37 77.6088 130.176C78.5985 130.836 79.7222 131.269 80.8992 131.443C83.1666 131.713 85.4574 131.186 87.3792 129.953C88.56 129.233 89.5392 128.218 90.6984 127.426C91.8576 126.634 98.7552 124.97 99.9144 121.09C100.634 118.62 100.541 115.812 97.6104 112.205C96.9328 111.564 96.47 110.729 96.2855 109.814C96.2906 109.011 96.4751 108.219 96.8256 107.496C97.231 106.673 97.3766 105.747 97.2432 104.839C96.9167 103.976 96.3913 103.201 95.7095 102.578C94.6295 101.275 94.8311 99.3816 95.7095 97.056C96.0527 96.0708 96.1662 95.0203 96.0414 93.9846C95.9166 92.9489 95.5569 91.9554 94.9895 91.08C94.2781 90.0727 93.4382 89.1626 92.4912 88.3728C91.1736 87.12 90.9288 85.9536 90.3312 84.1896C89.2152 80.784 87.4511 79.2576 85.3848 78.2136C83.5271 77.2704 83.592 77.6304 81.5904 77.9328C79.5693 76.7033 77.1909 76.1956 74.844 76.4928C72.6839 76.7664 70.8623 78.2352 69.2135 79.632C67.7735 80.8848 66.3983 82.2312 66.3335 84.3408C66.2903 85.5576 66.5856 86.76 66.528 87.9408C66.456 89.4888 65.5919 90.468 64.5624 91.44C63.0339 92.7436 61.9785 94.5152 61.56 96.48C61.2936 98.1288 62.9063 100.678 61.0127 103.118C59.3351 105.278 56.3904 107.741 55.62 110.455C53.2368 118.915 58.9608 121.68 61.1496 122.81Z" fill="#263238"/>
<path d="M89.1144 127.339C92.4336 126.842 97.5312 127.462 99.2952 123.739C99.9925 123.17 100.544 122.442 100.905 121.617C101.265 120.792 101.424 119.893 101.369 118.994C101.268 117.036 100.123 115.337 98.8632 113.954C98.0486 113.193 97.3392 112.326 96.7536 111.377C96.5663 110.638 96.4292 109.888 96.3432 109.13C96.4842 108.162 96.7504 107.215 97.1352 106.315C97.1352 106.315 97.1352 106.279 97.1352 106.315C96.4152 107.842 95.7384 109.541 96.4152 111.24C96.5104 111.489 96.626 111.73 96.7608 111.96C96.9998 112.856 97.3303 113.724 97.7472 114.552C98.8416 116.712 99.8352 118.678 99.6912 121.205C99.6616 122.048 99.4581 122.877 99.0936 123.638C97.6586 124.896 95.8662 125.674 93.9672 125.863C93.924 125.863 93.9168 125.95 93.9672 125.942C95.6853 125.768 97.3331 125.169 98.7624 124.2C96.8328 126.958 92.3616 126.59 89.1216 127.224C89.0136 127.246 89.0496 127.354 89.1144 127.339ZM99.5472 123.12V123.048C100.114 121.008 99.9662 118.836 99.1296 116.892C98.604 115.603 97.8192 114.444 97.3008 113.148C97.2144 112.925 97.128 112.694 97.056 112.471C97.776 113.479 98.7984 114.322 99.5184 115.308C101.102 117.468 101.563 120.024 100.094 122.35C99.9293 122.618 99.7465 122.876 99.5472 123.12Z" fill="#263238"/>
<path d="M53.9999 118.8C54.0431 118.872 54.1439 118.8 54.1079 118.735C52.6679 116.302 53.0999 113.803 54.2231 111.571C53.6831 114.905 54.3383 118.642 57.3911 120.434C57.4415 120.434 57.4847 120.384 57.4343 120.355C54.2807 118.462 53.8343 114.149 54.6551 110.779C55.354 109.628 56.1721 108.555 57.0959 107.575C58.5359 106.02 60.3503 104.479 61.4159 102.535C61.1966 103.663 60.5587 104.666 59.6303 105.343C59.5727 105.386 59.6303 105.48 59.6807 105.444C60.6861 104.767 61.4044 103.74 61.6967 102.564C61.7429 102.327 61.7694 102.086 61.7759 101.844C62.0492 101.219 62.2264 100.556 62.3015 99.8784C62.2152 100.484 62.0481 101.074 61.8047 101.635C61.6789 100.587 61.4375 99.5559 61.0847 98.5608C60.3071 95.6808 61.7615 93.96 63.5543 92.412C63.6983 92.3184 63.8423 92.2248 63.9935 92.1384C64.9726 91.6272 65.7977 90.8642 66.3839 89.928C66.5063 89.7984 66.6287 89.6688 66.7439 89.532C66.7439 89.532 66.5495 89.7264 66.4559 89.82C66.5833 89.5527 66.6822 89.2728 66.7511 88.9848C66.7511 88.9848 66.7511 88.9848 66.7511 88.9848C66.5613 89.4715 66.2857 89.9202 65.9375 90.3096C65.2175 90.9072 64.4327 91.4544 63.6767 92.0304C62.2367 92.8944 60.8471 93.7152 60.2999 95.436C59.7527 97.1568 60.1847 98.8344 60.2999 100.476C60.5015 103.054 59.5799 105.206 57.2327 106.236C57.2327 106.236 57.1895 106.294 57.2327 106.279C57.4114 106.23 57.587 106.17 57.7583 106.099C56.3152 107.146 55.2111 108.593 54.5831 110.261C52.9415 112.788 52.2503 116.057 53.9999 118.8ZM60.0119 104.299L59.2199 104.911C59.594 104.472 59.8866 103.97 60.0839 103.428C60.7319 101.599 60.1919 99.612 60.1487 97.7328C60.0846 96.9444 60.2122 96.1521 60.5206 95.4237C60.8291 94.6953 61.3091 94.0523 61.9199 93.5496C61.3825 94.1511 60.9799 94.8606 60.7391 95.6304C60.3287 97.02 60.7391 98.3088 61.1567 99.6408C61.435 100.48 61.5404 101.366 61.4663 102.247C61.055 102.976 60.5675 103.659 60.0119 104.285V104.299ZM55.1591 109.339C55.9782 107.864 57.1083 106.584 58.4711 105.588L58.7447 105.358C59.1191 105.055 59.4647 104.753 59.8535 104.443C58.3199 106.164 56.4551 107.669 55.1591 109.354V109.339Z" fill="#263238"/>
<path d="M92.0592 87.8976C93.2964 88.9727 94.4741 90.1144 95.5872 91.3176C96.3655 92.1028 96.8313 93.1444 96.8976 94.248C96.9283 95.3608 96.5777 96.4506 95.904 97.3368C95.652 97.7112 95.4072 98.0928 95.184 98.4816C95.1319 99.2008 95.2452 99.9225 95.5152 100.591C96.0552 101.866 97.2576 102.65 97.8192 103.939C98.7192 106.027 97.7184 107.741 96.84 109.613C97.4736 108.086 98.3664 106.574 97.8768 104.846C97.4736 103.406 96.4368 102.686 95.6592 101.513C95.1825 100.783 94.9183 99.9358 94.896 99.0648C94.176 100.505 93.96 101.945 95.184 103.428C95.2416 103.5 95.184 103.594 95.0976 103.529C93.5424 101.952 93.9528 100.044 94.9032 98.3808C94.9622 97.3928 95.1785 96.4206 95.544 95.5008C95.5872 95.4072 95.724 95.5008 95.7024 95.5728C95.5656 96.2928 95.3856 97.0128 95.2848 97.7328L95.4432 97.4952C96.6888 95.724 97.164 93.6648 95.7456 91.7352C94.68 90.2952 93.2256 89.208 92.0376 87.9048C92.0438 87.9001 92.0514 87.8976 92.0592 87.8976Z" fill="#263238"/>
<path d="M133.092 334.8C131.443 335.318 83.2176 334.274 81.4608 333.101C80.784 332.662 84.9096 286.985 84.9096 286.985L115.495 287.568L112.018 318.125C112.018 318.125 129.809 326.556 131.616 328.054C133.423 329.551 134.748 334.282 133.092 334.8Z" fill="#AD6359"/>
<path d="M133.092 334.8C131.443 335.311 83.2174 334.274 81.4606 333.094C81.2446 332.964 81.1798 328.327 81.9502 322.294C90.691 323.734 121.91 328.55 124.337 327.118C126.029 326.124 124.531 324.569 123.141 323.518C127.13 325.505 130.845 327.42 131.616 328.061C133.401 329.537 134.741 334.282 133.092 334.8Z" fill="#263238"/>
<path d="M112.881 310.795L82.8574 310.37C82.8574 310.37 88.8046 238.457 88.5526 237.074C88.243 235.303 66.9526 151.776 66.9526 151.776H95.6086C95.6086 151.776 118.202 229.63 119.016 237.132C120.312 249.242 112.881 310.795 112.881 310.795Z" fill="#37474F"/>
<path d="M85.5575 303.588C87.3287 303.466 89.1575 303.487 90.8999 303.458C92.6423 303.43 94.4639 303.458 96.2423 303.458C99.8423 303.494 103.363 303.545 106.92 303.646C107.899 303.646 108.871 303.703 109.843 303.746C110.815 303.79 111.924 303.977 112.961 304.013C113.04 304.013 113.04 304.142 112.961 304.142C112.082 304.142 111.211 304.279 110.333 304.301C109.454 304.322 108.518 304.337 107.611 304.337C105.833 304.337 104.011 304.337 102.269 304.337C98.7119 304.337 95.1479 304.258 91.5911 304.114C89.5823 304.027 87.5519 304.006 85.5503 303.804C85.5216 303.803 85.4945 303.791 85.4749 303.77C85.4554 303.749 85.4449 303.721 85.4459 303.692C85.4468 303.664 85.4591 303.637 85.48 303.617C85.501 303.597 85.5288 303.587 85.5575 303.588Z" fill="#263238"/>
<path d="M73.2382 158.522C75.8014 167.602 78.1486 176.76 80.4382 185.882C82.7278 195.005 85.0246 204.199 87.307 213.358L90.7198 227.131C91.8286 231.588 93.1174 236.074 93.3982 240.682C93.679 245.29 93.0814 250.085 92.6782 254.75C92.275 259.416 91.8862 264.11 91.4758 268.812C90.655 278.172 89.8702 287.575 88.8478 296.935C88.7182 298.109 88.5958 299.282 88.4734 300.449C88.4734 300.55 88.3078 300.55 88.315 300.449C88.9414 291.089 89.5894 281.686 90.3382 272.311C90.7126 267.626 91.0942 262.937 91.483 258.242C91.8646 253.562 92.4118 248.882 92.5558 244.174C92.6998 239.465 91.8358 234.9 90.6982 230.328C89.5606 225.756 88.4518 221.364 87.3286 216.878C85.039 207.725 82.7518 198.566 80.467 189.403C77.9254 179.15 75.3838 168.869 73.1374 158.544C73.1345 158.531 73.1371 158.517 73.1445 158.505C73.1519 158.494 73.1636 158.486 73.177 158.483C73.1903 158.48 73.2043 158.483 73.2158 158.49C73.2273 158.497 73.2353 158.509 73.2382 158.522Z" fill="#263238"/>
<path d="M66.96 151.776C66.96 151.776 76.0968 187.61 82.4904 212.839L94.6872 151.776H66.96Z" fill="#263238"/>
<path d="M97.0847 334.901C95.4287 335.419 47.2103 334.375 45.4463 333.202C44.7695 332.77 47.2895 287.064 47.2895 287.064L77.4647 287.647L76.0247 318.233C76.0247 318.233 93.8231 326.657 95.6231 328.154C97.4231 329.652 98.7335 334.397 97.0847 334.901Z" fill="#AD6359"/>
<path d="M97.0846 334.901C95.4358 335.419 47.203 334.375 45.4462 333.202C45.2302 333.065 45.2806 328.55 45.4462 322.402C54.187 323.842 85.8886 328.666 88.315 327.233C90.0142 326.239 88.5094 324.677 87.127 323.633C91.1086 325.62 94.8238 327.528 95.5942 328.169C97.387 329.645 98.7334 334.397 97.0846 334.901Z" fill="#263238"/>
<path d="M94.6655 151.769C94.6655 151.769 93.8303 165.449 90.5615 176.285C90.2951 177.178 90.0143 178.063 89.7047 178.906C86.8149 180.03 84.0337 181.416 81.3959 183.046C81.3959 183.046 79.3295 235.454 79.3655 238.709C79.5023 250.884 76.3919 310.19 76.3919 310.19L46.1519 309.902C46.1519 309.902 49.2911 242.834 49.3055 238.378C49.3055 234.058 51.3647 206.849 53.1863 183.254C53.1863 183.254 50.4935 175.716 50.7959 171.914C51.5159 162.684 55.6559 151.754 55.6559 151.754L94.6655 151.769Z" fill="#37474F"/>
<path d="M88.0559 170.172C88.1639 169.409 88.2791 168.653 88.3943 167.897C88.6103 166.507 88.8911 165.125 89.1143 163.742C89.6687 160.603 90.2447 157.45 90.9431 154.339C90.9431 154.267 91.0871 154.282 91.0799 154.339C90.9503 155.599 90.8063 156.852 90.6335 158.098C90.4607 159.343 90.3311 160.61 90.1511 161.863C89.8055 164.34 89.4311 166.824 89.0351 169.294C88.8695 170.244 88.3151 171.95 89.6471 172.246C90.7343 172.483 91.5263 171.418 91.8503 170.525C92.1838 169.404 92.4246 168.258 92.5703 167.098C92.7935 165.845 92.9879 164.585 93.1679 163.332C93.5567 160.586 93.9767 157.848 94.4279 155.117C94.4279 155.045 94.5647 155.066 94.5575 155.117C94.5 157.924 94.2982 160.726 93.9527 163.512C93.7799 164.851 93.5783 166.183 93.3479 167.508C93.2149 168.785 92.9073 170.037 92.4335 171.23C92.2381 171.699 91.9279 172.111 91.5316 172.428C91.1352 172.745 90.6654 172.957 90.1655 173.045H90.1007C90.1151 173.052 90.1269 173.063 90.1347 173.078C90.1424 173.092 90.1456 173.108 90.1439 173.124C90.1439 173.563 90.1439 174.017 90.0935 174.456C90.0431 174.895 89.9567 175.334 89.8703 175.766C89.794 176.209 89.6808 176.645 89.5319 177.07C89.4646 177.276 89.3852 177.478 89.2943 177.674C89.1935 177.876 89.0567 178.034 88.9415 178.222C88.934 178.239 88.9202 178.254 88.9027 178.262C88.8853 178.271 88.8653 178.272 88.8467 178.267C88.8281 178.262 88.8121 178.25 88.8017 178.233C88.7913 178.217 88.7872 178.197 88.7903 178.178C88.7903 178.106 88.7903 178.034 88.7903 177.962V177.919C88.7831 177.79 88.7831 177.66 88.7903 177.53C88.7903 177.314 88.8767 177.106 88.9199 176.897C89.0135 176.472 89.1287 176.054 89.2439 175.637C89.3591 175.219 89.4455 174.794 89.5535 174.377C89.6615 173.959 89.8055 173.52 89.9063 173.088C89.9029 173.074 89.9029 173.059 89.9063 173.045C89.5041 173.065 89.1054 172.961 88.7642 172.747C88.423 172.534 88.1556 172.22 87.9983 171.85C87.876 171.294 87.8958 170.717 88.0559 170.172Z" fill="#263238"/>
<path d="M78.9479 184.09C79.8489 183.395 80.7995 182.767 81.7919 182.21C82.8384 181.582 83.9229 181.02 85.0391 180.526C87.1991 179.575 89.4887 178.927 91.7495 178.178C91.8143 178.178 91.8647 178.272 91.7927 178.294C89.6327 179.165 87.5087 180.324 85.3919 181.361C84.3551 181.865 83.2967 182.354 82.2383 182.801C81.1799 183.247 80.1215 183.816 79.0271 184.241C78.9479 184.27 78.8831 184.14 78.9479 184.09Z" fill="#263238"/>
<path d="M61.8551 165.002C63.3966 164.988 64.9302 164.779 66.4199 164.383C67.1399 164.21 67.7879 163.987 68.4575 163.771C69.1262 163.584 69.7522 163.268 70.3007 162.842C71.3375 161.95 71.8199 160.538 72.2735 159.293C72.765 157.88 73.1642 156.437 73.4687 154.973C73.4687 154.901 73.5911 154.922 73.5911 154.973C73.6268 156.626 73.4181 158.276 72.9719 159.869C72.5975 161.222 72.1007 162.749 71.0063 163.685C69.7917 164.593 68.337 165.124 66.8231 165.211C65.1686 165.403 63.4961 165.379 61.8479 165.139C61.8363 165.132 61.8269 165.121 61.8206 165.109C61.8143 165.096 61.8114 165.083 61.8121 165.069C61.8129 165.055 61.8172 165.041 61.8247 165.03C61.8323 165.018 61.8428 165.009 61.8551 165.002Z" fill="#263238"/>
<path d="M47.455 304.034C49.2262 303.905 51.055 303.926 52.7974 303.905C54.5398 303.883 56.3974 303.905 58.1398 303.905C61.7062 303.934 65.2678 303.996 68.8246 304.092C69.7966 304.092 70.7686 304.15 71.7046 304.193C72.6406 304.236 73.7854 304.416 74.8222 304.459C74.8319 304.456 74.8424 304.455 74.8526 304.456C74.8629 304.458 74.8726 304.462 74.881 304.468C74.8895 304.474 74.8963 304.481 74.9011 304.491C74.9058 304.5 74.9083 304.51 74.9083 304.52C74.9083 304.531 74.9058 304.541 74.9011 304.55C74.8963 304.559 74.8895 304.567 74.881 304.573C74.8726 304.579 74.8629 304.583 74.8526 304.584C74.8424 304.586 74.8319 304.585 74.8222 304.582C73.951 304.582 73.0726 304.726 72.1942 304.747C71.3158 304.769 70.3798 304.783 69.4726 304.783H64.1302C60.5734 304.783 57.0094 304.704 53.4526 304.553C51.4438 304.474 49.4134 304.445 47.4118 304.25C47.3831 304.245 47.3579 304.228 47.3417 304.203C47.3255 304.179 47.3197 304.149 47.3254 304.121C47.3311 304.092 47.348 304.067 47.3723 304.051C47.3966 304.035 47.4263 304.029 47.455 304.034Z" fill="#263238"/>
<path d="M51.1199 300.096C51.072 300.094 51.0249 300.083 50.9815 300.063C50.938 300.042 50.899 300.013 50.8669 299.978C50.8347 299.942 50.8099 299.901 50.794 299.856C50.7781 299.81 50.7714 299.762 50.7743 299.714L57.6071 182.354C57.5207 181.843 55.5911 175.284 55.4471 171.936C55.2671 168.401 58.9319 154.606 59.0471 154.015C59.0741 153.921 59.1365 153.842 59.2213 153.793C59.306 153.745 59.4063 153.732 59.5007 153.756C59.5477 153.769 59.5917 153.79 59.6302 153.82C59.6687 153.849 59.701 153.886 59.7251 153.929C59.7492 153.971 59.7647 154.017 59.7707 154.066C59.7767 154.114 59.773 154.163 59.7599 154.21C59.7599 154.346 55.9727 168.473 56.1599 171.9C56.3471 175.327 58.3199 182.218 58.3199 182.275C58.3199 182.333 51.4871 299.75 51.4871 299.75C51.48 299.843 51.4384 299.93 51.3705 299.994C51.3025 300.058 51.2132 300.094 51.1199 300.096Z" fill="#263238"/>
<path d="M85.3056 110.88C100.08 123.876 113.76 138.161 114.934 145.519C116.518 155.7 110.275 158.602 107.467 158.659C99.8136 158.818 85.5576 127.958 80.5896 116.179C75.7656 104.724 82.08 108 85.3056 110.88Z" fill="#49DC92"/>
<path d="M95.4215 151.769L93.3623 138.809C93.3623 138.809 98.4815 133.502 95.8391 127.951C94.4999 125.136 85.3919 111.391 80.5319 107.964C75.9743 104.731 70.5671 107.417 68.5367 110.916C63.4319 119.75 58.5719 129.902 55.6199 151.762L95.4215 151.769Z" fill="#49DC92"/>
<path d="M87.2856 137.153C85.2181 137.378 83.17 137.756 81.1584 138.283C80.1576 138.564 79.1856 138.881 78.2064 139.226C77.724 139.399 77.2344 139.55 76.7664 139.702C76.2564 139.876 75.7268 139.988 75.1896 140.033C75.18 140.033 75.1709 140.037 75.1641 140.043C75.1574 140.05 75.1536 140.059 75.1536 140.069C75.1536 140.078 75.1574 140.087 75.1641 140.094C75.1709 140.101 75.18 140.105 75.1896 140.105C75.6967 140.122 76.2044 140.102 76.7088 140.047C77.1955 139.982 77.6768 139.881 78.1488 139.745C79.164 139.478 80.1576 139.154 81.1728 138.874C83.2104 138.312 85.248 137.743 87.3216 137.326C87.3445 137.321 87.3646 137.307 87.3774 137.288C87.3902 137.268 87.3947 137.244 87.39 137.221C87.3852 137.198 87.3715 137.178 87.3519 137.165C87.3324 137.153 87.3085 137.148 87.2856 137.153Z" fill="#263238"/>
<path d="M92.4479 138.888C90.7362 138.739 89.0172 138.691 87.2999 138.744C86.4431 138.744 85.5935 138.845 84.7367 138.946L83.5199 139.104C83.0735 139.176 82.6343 139.298 82.1879 139.356C82.1447 139.356 82.1447 139.435 82.1879 139.435C82.6127 139.392 83.0447 139.435 83.4695 139.435L84.7511 139.37L87.3215 139.262C89.0279 139.169 90.7343 139.097 92.4479 139.061C92.4708 139.061 92.4928 139.052 92.509 139.035C92.5252 139.019 92.5343 138.997 92.5343 138.974C92.5343 138.951 92.5252 138.929 92.509 138.913C92.4928 138.897 92.4708 138.888 92.4479 138.888Z" fill="#263238"/>
<path d="M68.0183 109.591C54.2735 120.391 40.7591 139.061 40.6583 149.494C40.5647 159.797 44.1503 158.803 45.1727 158.731C51.3935 158.328 66.0527 129.65 70.5167 117.958C74.9807 106.265 71.4167 106.92 68.0183 109.591Z" fill="#49DC92"/>
<path d="M53.4456 150.682C54.1656 149.386 54.8856 148.104 55.6056 146.794L57.7656 142.891C59.2056 140.292 60.6456 137.693 61.992 135.065C63.3384 132.437 64.7784 129.838 66.1392 127.202C66.8256 125.887 67.4904 124.562 68.1336 123.228C68.8032 121.903 69.4152 120.557 70.0416 119.21C69.053 122.014 67.9113 124.761 66.6216 127.44C65.3616 130.133 63.9864 132.768 62.6112 135.396C61.236 138.024 59.7312 140.609 58.2336 143.158C56.736 145.706 55.152 148.248 53.4456 150.682Z" fill="#263238"/>
<path d="M68.5728 122.666C68.8256 122.199 69.1094 121.749 69.4224 121.32C69.5808 121.104 69.7248 120.888 69.8904 120.686C70.0478 120.469 70.216 120.26 70.3944 120.06C70.2647 120.579 70.0348 121.069 69.7176 121.5C69.4115 121.956 69.0233 122.352 68.5728 122.666Z" fill="#263238"/>
<path d="M110.628 130.428C109.908 125.597 108.468 118.85 106.711 117.468C104.954 116.086 98.2223 111.11 96.3143 110.47C94.4063 109.829 85.8671 106.69 84.3119 107.59C83.0735 108.31 84.5927 111.593 88.6319 113.126C90.8341 114.012 92.9811 115.029 95.0615 116.172C96.1055 116.604 98.6615 119.938 97.9415 121.428C97.5527 122.306 95.0111 123.365 93.4199 122.666C91.8287 121.968 91.4039 118.836 89.5823 117.374C87.7607 115.913 84.5423 116.129 84.3911 116.993C84.2399 117.857 85.2767 118.253 86.9399 121.162C88.0127 123.034 88.1279 127.555 90.5399 130.766C91.7766 132.671 92.8947 134.65 93.8879 136.692L110.628 130.428Z" fill="#AD6359"/>
<path d="M87.9262 116.064C87.3386 115.979 86.7871 115.729 86.3351 115.344C86.1562 115.168 86.0292 114.946 85.9679 114.703C85.9499 114.569 85.9499 114.434 85.9679 114.3C85.9718 114.157 86.0252 114.019 86.119 113.911C86.119 113.911 86.119 113.846 86.119 113.911C86.0751 113.979 86.0271 114.044 85.9751 114.106C85.9368 114.162 85.9054 114.222 85.8814 114.286C85.8383 114.413 85.8165 114.547 85.8167 114.682C85.8346 114.98 85.9511 115.263 86.1479 115.488C86.3816 115.727 86.6679 115.909 86.984 116.019C87.3001 116.129 87.6375 116.164 87.9694 116.122C87.9694 116.122 87.955 116.071 87.9262 116.064Z" fill="#263238"/>
<path d="M106.711 117.454C105.149 115.049 101.16 110.736 97.2432 109.274C94.5936 108.295 85.5576 112.81 85.8456 114.545C86.1336 116.28 87.6744 116.266 89.9712 115.985C90.8064 115.877 95.2128 114.235 95.976 115.157C97.0776 116.482 98.5032 121.025 98.5032 121.025L106.711 117.454Z" fill="#AD6359"/>
<path d="M86.0615 113.861C87.1631 111.996 89.6183 110.981 92.0663 110.167C92.0663 110.167 92.1239 110.21 92.0663 110.225C91.4399 110.434 87.4655 112.313 86.0687 113.89C86.0759 113.911 86.0471 113.882 86.0615 113.861Z" fill="#263238"/>
<path d="M106.711 117.454C105.149 115.049 101.16 110.736 97.243 109.274C94.5934 108.295 87.4726 114.026 87.7534 115.754C88.0342 117.482 90.2662 117.598 92.7214 116.719C93.5134 116.431 96.163 114.523 96.9262 115.445C98.0206 116.77 100.699 120.053 100.699 120.053L106.711 117.454Z" fill="#AD6359"/>
<path d="M99.151 118.022C98.9062 117.648 98.8198 117.511 98.5606 117.137C98.3014 116.762 98.035 116.417 97.7542 116.042C97.5321 115.714 97.2543 115.426 96.9334 115.193C96.6016 115.005 96.2161 114.934 95.839 114.991C94.9932 115.175 94.1958 115.536 93.499 116.05C92.3719 116.76 91.0723 117.148 89.7406 117.173C89.3877 117.153 89.0424 117.063 88.7254 116.906C88.4859 116.8 88.2759 116.637 88.1134 116.431C87.5446 115.488 88.2286 114.401 88.9342 113.63C90.3206 112.23 91.9504 111.093 93.7438 110.275L95.0182 109.656C95.4985 109.395 96.0284 109.238 96.5734 109.195C97.4662 109.195 98.935 110.074 99.3958 110.34C99.3958 110.34 99.4534 110.304 99.3958 110.282C98.8486 109.951 97.4734 108.842 96.0334 108.936C95.5095 109.022 95.0049 109.2 94.543 109.462C94.039 109.678 93.5494 109.922 93.0598 110.182C92.1089 110.663 91.1966 111.216 90.331 111.838C89.4641 112.414 88.712 113.146 88.1134 113.998C87.8606 114.374 87.715 114.812 87.6921 115.265C87.6693 115.718 87.7701 116.168 87.9838 116.568C88.1767 116.819 88.4224 117.025 88.7036 117.17C88.9848 117.316 89.2946 117.398 89.611 117.41C89.9885 117.461 90.371 117.461 90.7486 117.41C91.5832 117.23 92.4037 116.989 93.2038 116.69C93.9814 116.374 94.6798 115.841 95.4862 115.589C95.6749 115.52 95.8756 115.491 96.076 115.502C96.2764 115.513 96.4726 115.565 96.6526 115.654C96.9815 115.872 97.2774 116.136 97.531 116.438C98.062 116.962 98.544 117.533 98.971 118.145C99.1438 118.238 99.259 118.181 99.151 118.022Z" fill="#263238"/>
<path d="M107.877 119.52C107.301 118.375 106.293 113.645 105.365 112.205C104.436 110.765 100.202 105.775 98.2582 106.013C95.8102 106.308 98.4094 110.7 99.6982 112.493C100.987 114.286 100.814 117.396 100.814 117.396L107.877 119.52Z" fill="#AD6359"/>
<path d="M97.92 109.541C98.3757 110.126 98.801 110.734 99.1944 111.362C99.6084 111.933 99.9813 112.532 100.31 113.155C100.588 113.804 100.754 114.496 100.8 115.2C100.836 115.546 100.85 115.92 100.858 116.23C100.865 116.539 100.858 116.95 100.858 117.353C100.858 117.389 100.793 117.396 100.793 117.353C100.739 116.671 100.643 115.992 100.505 115.322C100.376 114.627 100.163 113.95 99.8712 113.306C99.2808 112.032 98.4312 110.894 97.8336 109.62C97.7832 109.534 97.8552 109.498 97.92 109.541Z" fill="#263238"/>
<path d="M100.8 117.958C100.896 119.141 100.693 120.329 100.209 121.414C99.9878 121.963 99.7304 122.497 99.4391 123.012C99.1334 123.511 98.7992 123.992 98.4383 124.452C96.9872 126.219 96.0661 128.361 95.7815 130.63C95.6831 129.453 95.8177 128.269 96.1775 127.145C96.5589 126.018 97.1285 124.964 97.8623 124.027C98.5629 123.132 99.1686 122.167 99.6695 121.147C100.219 120.153 100.601 119.076 100.8 117.958Z" fill="#263238"/>
<path d="M106.754 158.306C101.974 157.658 98.8344 149.666 93.3912 135.612C92.4336 133.142 104.911 117.979 106.625 120.24C108.785 123.12 114.545 138.96 115.128 143.28C116.323 151.819 112.32 159.055 106.754 158.306Z" fill="#AD6359"/>
<path d="M96.2783 143.453L111.679 128.484C111.679 128.484 116.057 141.365 115.646 146.765C115.236 152.165 113.357 158.285 106.855 158.659C101.988 158.911 96.2783 143.453 96.2783 143.453Z" fill="#49DC92"/>
<path d="M101.254 153.814C100.699 153.029 100.202 152.201 99.7199 151.373C99.2375 150.545 98.7911 149.688 98.3519 148.831C97.9127 147.974 97.5239 147.103 97.1639 146.203C96.7891 145.314 96.4928 144.394 96.2783 143.453C96.6815 144.324 97.1135 145.181 97.5455 146.03L98.8415 148.594C99.2591 149.45 99.6839 150.307 100.087 151.178C100.49 152.05 100.894 152.921 101.254 153.814Z" fill="#263238"/>
<path d="M99.5902 146.066C100.31 145.246 101.16 144.482 101.952 143.705C102.744 142.927 103.55 142.164 104.364 141.408C105.991 139.886 107.628 138.384 109.274 136.901C109.728 136.498 110.181 136.087 110.642 135.691C111.103 135.295 111.679 134.899 112.161 134.474C112.169 134.471 112.179 134.469 112.187 134.471C112.196 134.472 112.204 134.476 112.211 134.483C112.217 134.489 112.221 134.497 112.223 134.506C112.224 134.515 112.223 134.524 112.219 134.532C111.823 134.906 111.499 135.346 111.096 135.734C110.693 136.123 110.289 136.526 109.879 136.915L107.46 139.205C105.833 140.717 104.205 142.229 102.535 143.69C101.592 144.518 100.663 145.375 99.655 146.146C99.6446 146.148 99.6339 146.147 99.6239 146.144C99.614 146.14 99.6052 146.134 99.5985 146.126C99.5918 146.118 99.5875 146.108 99.586 146.097C99.5845 146.087 99.586 146.076 99.5902 146.066Z" fill="#263238"/>
<path d="M71.4526 107.935C71.4526 107.935 74.2462 115.042 75.1678 115.855C76.0894 116.669 83.9302 116.215 84.103 115.567C84.2758 114.919 80.7982 108.454 80.7982 108.454C79.0853 107.639 77.2432 107.13 75.355 106.949C73.9798 106.822 72.6027 107.17 71.4526 107.935Z" fill="#AD6359"/>
<path d="M72.108 108.403C72.2232 109.195 75.4704 114.595 79.7688 114.329C82.2744 114.178 80.568 109.188 80.568 109.188L82.728 102.37L74.4768 96.0624C74.4768 96.0624 72.0648 108.072 72.108 108.403Z" fill="#AD6359"/>
<path d="M73.5984 100.548C74.1515 102.338 75.0664 103.995 76.2864 105.417C77.5063 106.839 79.0053 107.995 80.6904 108.814L82.7352 102.37L74.484 96.0624C74.484 96.0624 74.0808 98.0928 73.5984 100.548Z" fill="#263238"/>
<path d="M92.4551 92.7864C92.6999 104.508 85.7087 105.977 83.1815 106.027C80.8847 106.078 73.1015 105.934 71.6111 94.2984C70.1207 82.6632 75.5279 78.8472 80.7695 78.4584C86.0111 78.0696 92.2103 81.0576 92.4551 92.7864Z" fill="#AD6359"/>
<path d="M89.7047 91.8432C89.4419 91.7821 89.1824 91.7076 88.9272 91.62C88.6524 91.5735 88.3999 91.4397 88.2072 91.2384C88.1576 91.1601 88.1351 91.0678 88.1429 90.9755C88.1507 90.8833 88.1884 90.796 88.2504 90.7272C88.392 90.6111 88.562 90.5346 88.7428 90.5055C88.9237 90.4764 89.109 90.4958 89.2799 90.5616C89.6502 90.6448 89.9762 90.863 90.1943 91.1736C90.2419 91.2493 90.2656 91.3374 90.2624 91.4267C90.2592 91.516 90.2294 91.6023 90.1766 91.6744C90.1239 91.7466 90.0507 91.8012 89.9666 91.8313C89.8825 91.8614 89.7913 91.8655 89.7047 91.8432Z" fill="#263238"/>
<path d="M81.6767 91.4831C81.9452 91.4649 82.2122 91.4288 82.4759 91.3752C82.7645 91.3773 83.0456 91.2836 83.2751 91.1088C83.3312 91.0367 83.3616 90.948 83.3616 90.8568C83.3616 90.7655 83.3312 90.6768 83.2751 90.6048C83.1521 90.467 82.9942 90.365 82.8181 90.3092C82.6421 90.2535 82.4542 90.2461 82.2743 90.288C81.929 90.3227 81.6061 90.4753 81.3599 90.72C81.297 90.7824 81.2541 90.8621 81.2367 90.949C81.2193 91.0359 81.2282 91.126 81.2621 91.2079C81.2961 91.2898 81.3537 91.3596 81.4275 91.4087C81.5014 91.4577 81.5881 91.4836 81.6767 91.4831Z" fill="#263238"/>
<path d="M83.1312 94.5648C83.1312 94.5648 83.0664 94.5648 83.0664 94.6296C83.0664 95.4288 82.8936 96.3432 82.1592 96.5736V96.6168C83.052 96.5376 83.2392 95.328 83.1312 94.5648Z" fill="#263238"/>
<path d="M82.4615 93.6936C81.1799 93.5352 80.9495 96.0984 82.1303 96.2496C83.3111 96.4008 83.5199 93.8304 82.4615 93.6936Z" fill="#263238"/>
<path d="M81.9432 93.7872C81.7056 93.9096 81.4608 94.1472 81.2232 94.1472C80.9856 94.1472 80.6976 93.8592 80.5032 93.5856C80.5032 93.5856 80.46 93.5856 80.4528 93.5856C80.4024 94.0752 80.5464 94.5936 81.0648 94.716C81.5832 94.8384 81.9288 94.4208 82.0944 93.9384C82.08 93.8808 82.0368 93.7368 81.9432 93.7872Z" fill="#263238"/>
<path d="M87.9479 94.644C87.9479 94.644 88.0055 94.6872 88.0055 94.7232C87.8975 95.5152 87.9119 96.4368 88.6103 96.7752C88.6103 96.7752 88.6103 96.8256 88.6103 96.8184C87.7319 96.6096 87.7247 95.3784 87.9479 94.644Z" fill="#263238"/>
<path d="M88.7399 93.888C90.0287 93.888 89.8775 96.4872 88.6823 96.4584C87.4871 96.4296 87.6599 93.8592 88.7399 93.888Z" fill="#263238"/>
<path d="M89.2798 94.0896C89.4742 94.2336 89.6614 94.4928 89.9062 94.5216C90.151 94.5504 90.4102 94.2912 90.6262 94.0392C90.6262 94.0392 90.6694 94.0392 90.6622 94.0392C90.6622 94.5288 90.4606 95.0328 89.9422 95.0976C89.4238 95.1624 89.2222 94.7232 89.1286 94.2264C89.107 94.1616 89.1862 94.0248 89.2798 94.0896Z" fill="#263238"/>
<path d="M86.6734 98.0784C86.6734 98.0784 86.7382 99.2808 86.6734 99.8424C86.6734 99.8928 86.5366 99.9072 86.3422 99.9072C85.8535 99.9549 85.3611 99.8681 84.9182 99.6561C84.4753 99.4442 84.0988 99.1152 83.8294 98.7048C83.7934 98.6472 83.8726 98.5968 83.923 98.6328C84.5972 99.1802 85.4311 99.4936 86.299 99.5256C86.3494 99.3744 86.1118 97.4664 86.1982 97.4664C86.6306 97.5423 87.0516 97.673 87.451 97.8552C87.3718 95.3496 86.8966 92.8728 86.8606 90.3744C86.8656 90.3583 86.8757 90.3442 86.8893 90.3342C86.9029 90.3242 86.9193 90.3188 86.9362 90.3188C86.9531 90.3188 86.9695 90.3242 86.9831 90.3342C86.9967 90.3442 87.0068 90.3583 87.0118 90.3744C87.6017 93.0116 87.9297 95.7007 87.991 98.4024C88.0054 98.7048 86.8894 98.1936 86.6734 98.0784Z" fill="#263238"/>
<path d="M86.0112 99.576C85.6968 99.9556 85.2902 100.248 84.8304 100.426C84.5729 100.509 84.2959 100.509 84.0384 100.426C83.4768 100.26 83.4768 99.7056 83.5992 99.288C83.6675 99.055 83.7617 98.8304 83.88 98.6184C84.4689 99.1585 85.2163 99.4943 86.0112 99.576Z" fill="#263238"/>
<path d="M84.8304 100.426C84.5729 100.509 84.2959 100.509 84.0384 100.426C83.4768 100.26 83.4768 99.7056 83.5992 99.288C83.9024 99.3117 84.1887 99.4369 84.4121 99.6432C84.6354 99.8496 84.7828 100.125 84.8304 100.426Z" fill="#FF9ABB"/>
<path d="M71.5175 94.5072C72.8135 94.5072 76.3847 91.1088 76.8167 84.852C76.8167 84.852 76.0391 90.4464 75.5711 91.2456C75.1031 92.0448 77.5655 89.3376 77.9903 84.2976C79.5196 85.5225 81.2169 86.5215 83.0303 87.264C85.3775 88.056 86.8391 88.1136 87.0191 87.984C87.1991 87.8544 83.7431 86.544 82.8575 85.3848C82.8575 85.3848 89.0423 88.6752 91.9511 89.0568C92.2895 89.1 93.0671 82.1664 88.7039 78.9768C84.3407 75.7872 77.0111 78.588 75.0239 80.3448C75.0239 80.3448 72.7415 80.5464 70.1063 83.7576C67.4711 86.9688 70.1135 94.5144 71.5175 94.5072Z" fill="#263238"/>
<path d="M78.1558 83.6568C78.1558 83.5128 77.9254 83.5128 77.9326 83.6568C77.9742 85.9472 77.5352 88.2209 76.6438 90.3312C76.6438 90.3312 76.687 90.3816 76.7014 90.3312C77.7598 88.1928 78.4798 86.0832 78.1558 83.6568Z" fill="#263238"/>
<path d="M86.0904 88.2792C82.7136 87.696 79.848 86.472 77.7168 83.7C77.6736 83.6424 77.5728 83.7 77.616 83.7576C79.3296 86.7528 82.764 88.128 86.076 88.4088C86.1408 88.416 86.1624 88.2936 86.0904 88.2792Z" fill="#263238"/>
<path d="M73.5983 94.3632C73.5983 94.3632 71.2871 90.54 69.5663 91.3464C67.8455 92.1528 69.4223 97.5672 71.3231 98.4168C71.5587 98.5434 71.8175 98.621 72.0839 98.6449C72.3504 98.6687 72.6188 98.6383 72.8732 98.5556C73.1275 98.4728 73.3625 98.3394 73.5638 98.1633C73.7652 97.9873 73.9288 97.7722 74.0447 97.5312L73.5983 94.3632Z" fill="#AD6359"/>
<path d="M70.0559 92.88C70.0559 92.88 70.0559 92.916 70.0559 92.9304C71.3879 93.5712 72.0215 94.8816 72.4391 96.228C72.3687 96.0856 72.2681 95.9603 72.1443 95.8607C72.0206 95.7611 71.8766 95.6896 71.7225 95.6512C71.5683 95.6129 71.4077 95.6085 71.2517 95.6385C71.0957 95.6685 70.9481 95.732 70.8191 95.8248C70.8191 95.8248 70.8191 95.904 70.8191 95.8968C71.0636 95.8369 71.3206 95.8539 71.5551 95.9454C71.7896 96.0369 71.9901 96.1984 72.1295 96.408C72.3588 96.7635 72.5495 97.1424 72.6983 97.5384C72.7559 97.6608 72.9791 97.6104 72.9431 97.4664C73.1015 95.7096 71.9135 93.1824 70.0559 92.88Z" fill="#263238"/>
<path d="M83.7648 113.911L77.2848 134.021C77.0256 134.604 77.2848 135.115 77.8824 135.151L88.4304 135.871C88.7541 135.869 89.0704 135.774 89.3421 135.598C89.6138 135.422 89.8296 135.172 89.964 134.878L96.444 114.775C96.5216 114.666 96.5674 114.538 96.5761 114.404C96.5848 114.271 96.5562 114.138 96.4934 114.019C96.4306 113.901 96.3361 113.803 96.2205 113.736C96.105 113.668 95.9729 113.634 95.8392 113.638L85.2912 112.918C84.9693 112.924 84.6556 113.02 84.3858 113.196C84.1159 113.372 83.9008 113.619 83.7648 113.911Z" fill="#37474F"/>
<path d="M85.0175 113.983L78.5375 134.093C78.2783 134.676 78.5375 135.187 79.1351 135.223L89.6831 135.943C90.0064 135.939 90.322 135.844 90.5934 135.668C90.8647 135.492 91.0808 135.243 91.2167 134.95L97.6967 114.84C97.7719 114.732 97.8159 114.605 97.8238 114.473C97.8317 114.341 97.8033 114.21 97.7416 114.093C97.6799 113.976 97.5874 113.879 97.4741 113.811C97.3608 113.744 97.231 113.708 97.0991 113.71L86.5439 112.99C86.222 112.996 85.9083 113.092 85.6384 113.268C85.3686 113.444 85.1535 113.691 85.0175 113.983Z" fill="#455A64"/>
<path d="M87.8399 115.106C87.8236 115.282 87.7558 115.449 87.6449 115.586C87.534 115.723 87.385 115.824 87.2167 115.876C87.0484 115.929 86.8683 115.93 86.6992 115.881C86.5301 115.831 86.3794 115.732 86.2663 115.597C86.1531 115.462 86.0825 115.296 86.0634 115.121C86.0442 114.946 86.0774 114.769 86.1587 114.612C86.2399 114.456 86.3657 114.327 86.5201 114.242C86.6745 114.157 86.8507 114.12 87.0263 114.134C87.1437 114.144 87.258 114.177 87.3626 114.232C87.4671 114.286 87.5599 114.361 87.6355 114.451C87.7112 114.541 87.7682 114.646 87.8032 114.758C87.8383 114.871 87.8508 114.989 87.8399 115.106Z" fill="#263238"/>
<path d="M43.7398 158.71C48.3478 159.343 54.0862 155.765 68.9758 144.893C71.0422 143.395 64.339 125.993 62.0494 127.49C59.1694 129.37 48.427 137.29 47.7142 137.966C41.7022 143.69 40.615 158.285 43.7398 158.71Z" fill="#AD6359"/>
<path d="M56.7358 132.754C56.7358 132.754 60.9766 126.799 64.1734 124.366C67.5511 121.919 71.4721 120.327 75.5998 119.729C80.0566 119.074 91.303 120.571 91.4398 123.883C91.555 126.886 80.143 124.776 80.143 124.776C80.143 124.776 92.1382 125.006 91.6198 128.642C91.1014 132.278 77.9902 129.074 77.9902 129.074C77.9902 129.074 90.3094 129.593 89.179 133.258C88.3294 136.03 76.2838 133.798 76.2838 133.798C76.2838 133.798 86.875 134.316 86.119 137.203C85.2838 140.393 74.0446 139.032 74.0446 139.032C70.891 146.045 66.3694 148.025 63.0862 149.112C62.323 149.378 56.7358 132.754 56.7358 132.754Z" fill="#AD6359"/>
<path d="M76.0246 124.43C77.4646 124.43 78.8614 124.373 80.2726 124.474C81.6838 124.574 83.0878 124.726 84.4774 124.956C86.3024 125.232 88.09 125.715 89.8054 126.396C86.6734 125.424 81.6406 124.956 80.2294 124.877C78.8182 124.798 77.4286 124.603 76.0246 124.502C75.9886 124.481 75.9958 124.43 76.0246 124.43Z" fill="#263238"/>
<path d="M75.5999 129.499C77.3999 129.55 79.1999 129.499 80.9927 129.658C82.7855 129.816 84.4704 130.061 86.2488 130.313C86.3856 130.313 86.328 130.399 86.1912 130.385C84.4056 130.205 82.7424 130.176 80.9496 130.018C79.1567 129.859 77.3495 129.636 75.5927 129.542C75.5351 129.542 75.5423 129.499 75.5999 129.499Z" fill="#263238"/>
<path d="M74.3904 133.783C77.1556 133.788 79.9131 134.075 82.62 134.64C82.7568 134.64 82.6704 134.748 82.5336 134.726C79.8048 134.388 77.6664 134.1 74.3904 133.87C74.34 133.877 74.3328 133.79 74.3904 133.783Z" fill="#263238"/>
<path d="M56.736 130.385L62.64 151.769C62.64 151.769 46.8936 161.035 43.416 158.58C39.9384 156.125 42.2136 143.784 46.152 139.075C47.7576 137.117 56.736 130.385 56.736 130.385Z" fill="#49DC92"/>
<path d="M56.9304 131.098L56.7 130.378H56.7576C55.2672 131.594 53.7768 132.797 52.308 134.021C50.8392 135.245 49.3632 136.469 47.988 137.765C47.2781 138.393 46.6095 139.066 45.9864 139.781C45.3932 140.515 44.8633 141.297 44.4024 142.121C43.479 143.81 42.8301 145.635 42.48 147.528C42.6321 145.593 43.1553 143.706 44.0208 141.97C44.4557 141.096 44.9818 140.27 45.5904 139.507C46.2139 138.761 46.8875 138.059 47.6064 137.405C49.0464 136.109 50.4864 134.899 52.0416 133.718C53.5968 132.538 55.1232 131.422 56.7216 130.356H56.7648V130.406L56.9304 131.098Z" fill="#263238"/>
<path d="M53.2799 135.691C53.6399 136.742 53.9063 137.851 54.2087 138.895C54.5111 139.939 54.7919 141.055 55.0655 142.114C55.6055 144.274 56.1383 146.434 56.6495 148.594C56.7863 149.184 56.9231 149.782 57.0527 150.372C57.1823 150.962 57.2471 151.661 57.3839 152.294C57.3839 152.299 57.3829 152.304 57.3811 152.308C57.3793 152.313 57.3767 152.317 57.3733 152.32C57.37 152.323 57.366 152.326 57.3616 152.328C57.3573 152.329 57.3526 152.33 57.3479 152.33C57.3431 152.33 57.3385 152.329 57.3341 152.328C57.3297 152.326 57.3258 152.323 57.3224 152.32C57.3191 152.317 57.3164 152.313 57.3146 152.308C57.3128 152.304 57.3119 152.299 57.3119 152.294C57.1679 151.769 56.9447 151.258 56.7935 150.739C56.6423 150.221 56.4839 149.645 56.3399 149.098C56.0591 148.025 55.7783 146.938 55.5047 145.872C54.9575 143.712 54.4175 141.552 53.9423 139.392C53.6687 138.161 53.3663 136.937 53.1647 135.698C53.1637 135.683 53.1689 135.668 53.179 135.657C53.1891 135.645 53.2034 135.638 53.2187 135.637C53.2339 135.636 53.249 135.641 53.2604 135.652C53.2719 135.662 53.2789 135.676 53.2799 135.691Z" fill="#263238"/>
<path d="M62.6398 151.769C62.7406 151.97 62.7334 151.769 62.7118 151.675C62.6902 151.582 62.4454 150.516 62.2222 149.868C62.2222 149.803 62.0998 149.688 62.1358 149.918C62.2696 150.544 62.4378 151.162 62.6398 151.769Z" fill="#263238"/>
</svg>
