<svg width="24" height="24" viewBox="0 0 24 24" fill="none" xmlns="http://www.w3.org/2000/svg">
<path d="M6 17.5H5.25V18.25H6V17.5ZM18 17.5V18.25H18.75V17.5H18ZM6.75 17.5V12.5H5.25V17.5H6.75ZM6.75 12.5C6.75 11.1598 7.19758 9.84413 8.06056 8.87327C8.91127 7.91622 10.2035 7.25 12 7.25V5.75C9.79648 5.75 8.08873 6.58378 6.93944 7.87673C5.80242 9.15587 5.25 10.8402 5.25 12.5H6.75ZM12 7.25C13.7965 7.25 15.0887 7.91622 15.9394 8.87327C16.8024 9.84413 17.25 11.1598 17.25 12.5H18.75C18.75 10.8402 18.1976 9.15587 17.0606 7.87673C15.9113 6.58378 14.2035 5.75 12 5.75V7.25ZM17.25 12.5V17.5H18.75V12.5H17.25ZM18 16.75H6V18.25H18V16.75Z" fill="#333333"/>
<path d="M20.5 10.75C20.0858 10.75 19.75 11.0858 19.75 11.5C19.75 11.9142 20.0858 12.25 20.5 12.25V10.75ZM22 12.25C22.4142 12.25 22.75 11.9142 22.75 11.5C22.75 11.0858 22.4142 10.75 22 10.75V12.25ZM20.5 12.25H22V10.75H20.5V12.25Z" fill="#333333"/>
<path d="M2 10.75C1.58579 10.75 1.25 11.0858 1.25 11.5C1.25 11.9142 1.58579 12.25 2 12.25V10.75ZM3.5 12.25C3.91421 12.25 4.25 11.9142 4.25 11.5C4.25 11.0858 3.91421 10.75 3.5 10.75V12.25ZM2 12.25H3.5V10.75H2V12.25Z" fill="#333333"/>
<path d="M18.9697 4.46967C19.2626 4.17678 19.7374 4.17678 20.0303 4.46967C20.3232 4.76256 20.3232 5.23744 20.0303 5.53033L18.9697 4.46967ZM18.9697 6.59099C18.6768 6.88388 18.2019 6.88388 17.909 6.59099C17.6161 6.2981 17.6161 5.82322 17.909 5.53033L18.9697 6.59099ZM20.0303 5.53033L18.9697 6.59099L17.909 5.53033L18.9697 4.46967L20.0303 5.53033Z" fill="#333333"/>
<path d="M5.03033 4.46967C4.73744 4.17678 4.26256 4.17678 3.96967 4.46967C3.67678 4.76256 3.67678 5.23744 3.96967 5.53033L5.03033 4.46967ZM5.03033 6.59099C5.32322 6.88388 5.7981 6.88388 6.09099 6.59099C6.38388 6.2981 6.38388 5.82322 6.09099 5.53033L5.03033 6.59099ZM3.96967 5.53033L5.03033 6.59099L6.09099 5.53033L5.03033 4.46967L3.96967 5.53033Z" fill="#333333"/>
<path d="M12.75 4C12.75 4.41421 12.4142 4.75 12 4.75C11.5858 4.75 11.25 4.41421 11.25 4H12.75ZM11.25 2.5C11.25 2.08579 11.5858 1.75 12 1.75C12.4142 1.75 12.75 2.08579 12.75 2.5H11.25ZM11.25 4V2.5H12.75V4H11.25Z" fill="#333333"/>
<rect x="4" y="17.5" width="16" height="4" rx="1" stroke="#333333" stroke-width="1.5"/>
</svg>
