<svg width="24" height="24" viewBox="0 0 24 24" fill="none" xmlns="http://www.w3.org/2000/svg">
<path d="M12.75 7.96655C12.75 7.55234 12.4142 7.21655 12 7.21655C11.5858 7.21655 11.25 7.55234 11.25 7.96655L12.75 7.96655ZM11.25 20.9999C11.25 21.4141 11.5858 21.7499 12 21.7499C12.4142 21.7499 12.75 21.4141 12.75 20.9999H11.25ZM11.25 7.96655V20.9999H12.75V7.96655L11.25 7.96655Z" fill="#AAAAAA"/>
<path d="M22.2005 7.38487C17.895 1.39697 14.2118 4.56349 12.4726 7.65394C12.1495 8.22794 12.1959 8.94139 12.5937 9.46632C15.7262 13.5994 19.6745 11.7478 21.9997 9.62923C22.6363 9.04924 22.7033 8.08405 22.2005 7.38487Z" stroke="#AAAAAA" stroke-width="1.5" stroke-linecap="round" stroke-linejoin="round"/>
<path d="M12 8.53321C14.75 7.39998 16.4 7.96662 17.5 8.53321" stroke="#AAAAAA" stroke-width="1.5" stroke-linecap="round" stroke-linejoin="round"/>
<path d="M1.79946 7.38487C6.10502 1.39697 9.7882 4.56349 11.5274 7.65394C11.8505 8.22794 11.8041 8.94139 11.4063 9.46632C8.2738 13.5994 4.32551 11.7478 2.00031 9.62923C1.36374 9.04924 1.29672 8.08405 1.79946 7.38487Z" stroke="#AAAAAA" stroke-width="1.5" stroke-linecap="round" stroke-linejoin="round"/>
<path d="M12 8.53321C9.25 7.39998 7.6 7.96662 6.5 8.53321" stroke="#AAAAAA" stroke-width="1.5" stroke-linecap="round" stroke-linejoin="round"/>
</svg>
